<svg width="661" height="662" viewBox="0 0 661 662" fill="none" xmlns="http://www.w3.org/2000/svg">
<path d="M255.124 123.41C253.545 123.983 252.001 124.161 250.492 123.943C248.997 123.695 247.672 123.104 246.516 122.171C245.359 121.237 244.507 120.015 243.958 118.504C243.818 118.12 243.812 117.752 243.94 117.399C244.067 117.047 244.322 116.801 244.706 116.661C245.089 116.522 245.443 116.547 245.767 116.736C246.091 116.924 246.322 117.21 246.462 117.594C246.839 118.632 247.427 119.478 248.226 120.132C249.018 120.764 249.932 121.172 250.969 121.357C252.021 121.511 253.077 121.395 254.138 121.01C255.897 120.371 257.097 119.386 257.737 118.056C258.369 116.702 258.402 115.248 257.837 113.691C257.435 112.586 256.85 111.713 256.081 111.073C255.304 110.411 254.428 110.001 253.452 109.845C252.468 109.667 251.468 109.762 250.453 110.13C250.092 110.262 249.742 110.248 249.404 110.09C249.066 109.932 248.827 109.661 248.688 109.278C248.557 108.917 248.57 108.567 248.728 108.229C248.886 107.891 249.145 107.656 249.506 107.525C250.296 107.238 250.948 106.784 251.463 106.163C251.992 105.511 252.341 104.784 252.509 103.983C252.678 103.181 252.618 102.385 252.332 101.596C251.897 100.4 251.131 99.5554 250.032 99.0609C248.925 98.5438 247.694 98.5312 246.341 99.0229C245.394 99.3671 244.617 99.8661 244.012 100.52C243.399 101.151 242.993 101.861 242.794 102.648C242.609 103.405 242.66 104.178 242.947 104.967C243.086 105.351 243.081 105.723 242.931 106.084C242.796 106.414 242.547 106.644 242.187 106.775C241.803 106.915 241.453 106.901 241.138 106.735C240.814 106.546 240.586 106.272 240.455 105.911C240.004 104.67 239.915 103.439 240.186 102.217C240.471 100.964 241.064 99.8548 241.964 98.8893C242.857 97.9013 244.025 97.145 245.468 96.6205C246.777 96.1452 248.056 96.0123 249.307 96.2218C250.572 96.4006 251.693 96.8869 252.671 97.6807C253.663 98.4437 254.385 99.4456 254.836 100.686C255.114 101.453 255.193 102.267 255.072 103.128C254.973 103.981 254.726 104.812 254.33 105.62C253.925 106.405 253.42 107.086 252.813 107.664C254.086 107.585 255.233 107.755 256.254 108.176C257.275 108.597 258.138 109.215 258.843 110.031C259.54 110.825 260.073 111.73 260.442 112.745C260.983 114.233 261.106 115.695 260.81 117.131C260.528 118.535 259.89 119.801 258.896 120.929C257.893 122.033 256.635 122.86 255.124 123.41Z" fill="white"/>
<path d="M275.797 117C273.959 117.467 272.201 117.467 270.523 117.001C268.839 116.512 267.381 115.644 266.149 114.397C264.939 113.144 264.099 111.587 263.627 109.726C263.16 107.888 263.149 106.133 263.591 104.461C264.057 102.783 264.893 101.345 266.099 100.147C267.3 98.9267 268.796 98.0892 270.587 97.6348C272.146 97.2394 273.639 97.2197 275.066 97.5756C276.488 97.9083 277.721 98.524 278.766 99.4226L276.164 89.1636C276.057 88.7448 276.103 88.3867 276.3 88.0892C276.491 87.7683 276.784 87.5578 277.179 87.4575C277.575 87.3571 277.933 87.4025 278.254 87.5934C278.569 87.7612 278.779 88.0544 278.885 88.4731L283.064 104.943C283.477 106.77 283.44 108.525 282.951 110.209C282.479 111.864 281.617 113.296 280.364 114.505C279.134 115.708 277.612 116.54 275.797 117ZM275.177 114.558C276.527 114.215 277.645 113.597 278.533 112.704C279.437 111.781 280.054 110.696 280.381 109.449C280.732 108.197 280.73 106.872 280.376 105.477C280.028 104.104 279.401 102.951 278.496 102.017C277.608 101.054 276.549 100.394 275.319 100.037C274.113 99.6745 272.835 99.6643 271.486 100.007C270.16 100.343 269.042 100.961 268.131 101.86C267.22 102.76 266.592 103.848 266.248 105.124C265.897 106.376 265.896 107.689 266.244 109.062C266.598 110.457 267.228 111.622 268.133 112.556C269.039 113.49 270.109 114.147 271.344 114.527C272.574 114.884 273.851 114.894 275.177 114.558Z" fill="white"/>
<path d="M308.652 111.177C306.765 111.359 305.027 111.092 303.439 110.377C301.849 109.638 300.539 108.559 299.511 107.139C298.505 105.717 297.911 104.05 297.727 102.139C297.545 100.252 297.799 98.5153 298.491 96.9297C299.206 95.3418 300.25 94.0476 301.625 93.0471C302.997 92.0228 304.602 91.422 306.442 91.2447C308.042 91.0905 309.521 91.2976 310.878 91.8661C312.232 92.4107 313.358 93.2064 314.254 94.2532L313.239 83.718C313.198 83.288 313.297 82.9409 313.537 82.6767C313.774 82.3886 314.096 82.2249 314.502 82.1858C314.908 82.1467 315.255 82.2458 315.543 82.4833C315.829 82.6969 315.993 83.0186 316.034 83.4487L317.664 100.362C317.796 102.23 317.492 103.959 316.754 105.55C316.036 107.114 314.967 108.398 313.544 109.403C312.146 110.406 310.515 110.997 308.652 111.177ZM308.41 108.668C309.796 108.535 310.995 108.094 312.008 107.345C313.042 106.57 313.816 105.592 314.329 104.409C314.866 103.224 315.065 101.915 314.927 100.481C314.791 99.0719 314.347 97.8369 313.593 96.7762C312.862 95.6894 311.915 94.8764 310.754 94.3373C309.617 93.7959 308.356 93.592 306.97 93.7255C305.609 93.8567 304.409 94.2978 303.373 95.0487C302.336 95.7996 301.55 96.7795 301.016 97.9883C300.479 99.1733 300.278 100.47 300.414 101.88C300.552 103.313 300.998 104.56 301.751 105.621C302.504 106.682 303.463 107.493 304.626 108.056C305.787 108.596 307.049 108.799 308.41 108.668Z" fill="white"/>
<path d="M333.207 110.124C331.263 110.106 329.539 109.67 328.035 108.816C326.555 107.939 325.39 106.74 324.54 105.221C323.713 103.701 323.309 101.969 323.327 100.025C323.345 98.0574 323.756 96.333 324.562 94.8523C325.392 93.3478 326.518 92.17 327.942 91.3189C329.366 90.4678 331.002 90.0507 332.85 90.0675C334.674 90.0841 336.254 90.5185 337.59 91.3706C338.951 92.1991 339.996 93.3486 340.727 94.8193C341.457 96.29 341.814 97.9613 341.797 99.8333C341.794 100.217 341.671 100.528 341.429 100.766C341.187 100.98 340.874 101.085 340.49 101.081L325.191 100.942L325.211 98.6384L340.799 98.7801L339.241 99.882C339.277 98.4903 339.037 97.24 338.519 96.1313C338.001 95.0225 337.253 94.1517 336.274 93.5188C335.32 92.8861 334.171 92.5636 332.827 92.5514C331.459 92.5389 330.256 92.852 329.218 93.4906C328.181 94.1292 327.368 95.0218 326.782 96.1685C326.22 97.2915 325.932 98.5849 325.919 100.049C325.905 101.513 326.206 102.812 326.819 103.945C327.457 105.079 328.325 105.975 329.423 106.633C330.521 107.291 331.79 107.627 333.23 107.64C334.094 107.648 334.959 107.511 335.826 107.231C336.717 106.927 337.428 106.55 337.96 106.099C338.226 105.885 338.527 105.78 338.863 105.783C339.199 105.762 339.486 105.848 339.725 106.043C340.034 106.333 340.187 106.647 340.184 106.983C340.205 107.319 340.071 107.606 339.78 107.843C338.982 108.508 337.969 109.063 336.741 109.508C335.513 109.929 334.335 110.134 333.207 110.124Z" fill="white"/>
<path d="M353.036 111.291C351.628 111.147 350.255 110.765 348.919 110.146C347.583 109.527 346.535 108.696 345.773 107.653C345.539 107.34 345.465 107.006 345.549 106.653C345.634 106.3 345.845 106.008 346.182 105.777C346.54 105.572 346.896 105.512 347.25 105.596C347.603 105.681 347.885 105.867 348.097 106.154C348.602 106.881 349.302 107.471 350.196 107.924C351.114 108.38 352.147 108.667 353.293 108.784C355.059 108.965 356.367 108.797 357.216 108.281C358.068 107.74 358.549 107.042 358.661 106.185C358.749 105.325 358.415 104.579 357.659 103.947C356.906 103.291 355.614 102.713 353.784 102.212C351.412 101.583 349.713 100.734 348.689 99.6641C347.664 98.5943 347.219 97.4029 347.353 96.0897C347.478 94.8721 347.904 93.8903 348.632 93.1445C349.359 92.3987 350.281 91.8777 351.397 91.5817C352.513 91.2858 353.716 91.2037 355.005 91.3356C356.605 91.4992 357.949 91.9142 359.039 92.5805C360.153 93.2493 361.02 94.0859 361.641 95.0903C361.848 95.4251 361.911 95.7572 361.829 96.0866C361.747 96.4159 361.528 96.671 361.172 96.8516C360.868 96.9895 360.528 97.015 360.151 96.9281C359.8 96.8199 359.508 96.6091 359.274 96.2957C358.748 95.5423 358.107 94.9701 357.351 94.5791C356.597 94.1643 355.707 93.9043 354.681 93.7993C353.367 93.665 352.289 93.8322 351.445 94.3007C350.603 94.7454 350.141 95.3736 350.058 96.1854C350.002 96.7345 350.096 97.2267 350.341 97.6618C350.61 98.0995 351.087 98.5101 351.771 98.8937C352.48 99.2798 353.479 99.6475 354.77 99.9967C356.532 100.466 357.897 101.04 358.865 101.718C359.859 102.375 360.532 103.107 360.884 103.915C361.261 104.702 361.405 105.536 361.315 106.42C361.2 107.542 360.764 108.499 360.008 109.29C359.278 110.06 358.304 110.623 357.085 110.981C355.89 111.341 354.54 111.445 353.036 111.291Z" fill="white"/>
<path d="M367.221 113.057C366.795 112.984 366.472 112.808 366.252 112.527C366.059 112.227 365.999 111.863 366.072 111.438L368.898 94.7919C368.971 94.3659 369.145 94.0548 369.422 93.8583C369.726 93.6423 370.092 93.5704 370.517 93.6427C370.92 93.711 371.217 93.8954 371.409 94.1959C371.63 94.4767 371.703 94.83 371.631 95.2559L368.804 111.902C368.732 112.328 368.544 112.649 368.239 112.865C367.962 113.061 367.623 113.125 367.221 113.057ZM371.109 89.9455C370.588 89.8571 370.171 89.5915 369.856 89.1486C369.542 88.7058 369.431 88.2122 369.524 87.668C369.624 87.0765 369.892 86.6472 370.327 86.3803C370.789 86.0937 371.281 85.9945 371.801 86.0829C372.298 86.1673 372.706 86.4191 373.024 86.8383C373.37 87.2379 373.493 87.7334 373.392 88.325C373.3 88.8692 373.032 89.2984 372.589 89.6127C372.146 89.927 371.653 90.0379 371.109 89.9455Z" fill="white"/>
<path d="M383.893 116.75C382.055 116.284 380.53 115.463 379.318 114.288C378.112 113.091 377.288 111.656 376.846 109.983C376.427 108.317 376.457 106.542 376.935 104.658C377.42 102.75 378.267 101.17 379.476 99.9172C380.686 98.6644 382.127 97.817 383.799 97.375C385.477 96.9098 387.247 96.9135 389.108 97.3861C390.992 97.8646 392.549 98.7057 393.778 99.9094C395.037 101.096 395.887 102.525 396.329 104.197C396.795 105.875 396.797 107.671 396.335 109.585L394.553 110.023C394.115 111.745 393.365 113.188 392.301 114.354C391.243 115.497 389.977 116.29 388.503 116.733C387.058 117.158 385.521 117.164 383.893 116.75ZM382.372 124.201C380.534 123.734 379.006 122.975 377.788 121.923C376.563 120.894 375.648 119.671 375.042 118.254C374.857 117.91 374.818 117.578 374.924 117.258C375.053 116.944 375.295 116.721 375.651 116.588C376.007 116.456 376.362 116.472 376.716 116.636C377.07 116.8 377.317 117.049 377.455 117.381C377.917 118.39 378.607 119.283 379.523 120.061C380.463 120.844 381.631 121.413 383.027 121.768C384.33 122.098 385.584 122.083 386.79 121.72C387.997 121.358 389.047 120.684 389.941 119.698C390.859 118.717 391.513 117.46 391.902 115.924L393.249 110.621L394.775 108.854L396.335 109.585L394.528 116.703C394.049 118.587 393.202 120.167 391.987 121.443C390.765 122.742 389.324 123.639 387.663 124.134C385.997 124.651 384.233 124.674 382.372 124.201ZM384.792 114.379C386.165 114.727 387.451 114.732 388.651 114.393C389.881 114.037 390.937 113.389 391.819 112.449C392.702 111.509 393.323 110.33 393.684 108.911C394.044 107.492 394.061 106.159 393.733 104.912C393.412 103.642 392.793 102.569 391.877 101.692C390.99 100.798 389.86 100.177 388.487 99.8286C387.115 99.48 385.814 99.4839 384.585 99.8402C383.361 100.173 382.305 100.821 381.416 101.784C380.534 102.724 379.913 103.903 379.552 105.322C379.192 106.741 379.175 108.074 379.502 109.321C379.83 110.568 380.448 111.641 381.359 112.541C382.275 113.418 383.42 114.03 384.792 114.379Z" fill="white"/>
<path d="M414.204 126.393C413.821 126.252 413.552 126.012 413.396 125.672C413.24 125.333 413.229 124.983 413.362 124.623L416.609 115.845C417.125 114.449 417.28 113.201 417.073 112.101C416.888 111.009 416.417 110.067 415.661 109.276C414.927 108.493 413.986 107.889 412.838 107.464C411.735 107.056 410.654 106.899 409.596 106.994C408.56 107.097 407.646 107.424 406.853 107.975C406.061 108.527 405.49 109.275 405.14 110.22L403.283 109.534C403.852 108.132 404.701 107.013 405.83 106.177C406.966 105.318 408.248 104.794 409.674 104.605C411.108 104.393 412.557 104.558 414.02 105.099C415.618 105.69 416.923 106.557 417.933 107.698C418.952 108.817 419.585 110.151 419.831 111.701C420.099 113.259 419.892 114.96 419.209 116.806L415.962 125.585C415.829 125.945 415.592 126.203 415.253 126.359C414.914 126.515 414.564 126.527 414.204 126.393ZM399.686 121.023C399.28 120.873 398.996 120.64 398.831 120.323C398.698 119.993 398.702 119.636 398.843 119.253L404.713 103.384C404.863 102.979 405.092 102.705 405.4 102.563C405.74 102.407 406.112 102.404 406.517 102.554C406.9 102.696 407.158 102.932 407.291 103.263C407.456 103.579 407.463 103.94 407.313 104.346L401.443 120.215C401.302 120.597 401.061 120.867 400.722 121.023C400.414 121.165 400.068 121.165 399.686 121.023Z" fill="white"/>
<path d="M437.629 139.551C438.682 136.589 438.682 132.124 436.587 127.343C435.562 124.986 434.24 123.081 432.666 121.696L433.41 120.379C437.43 121.534 442.255 121.118 446.304 119.147C448.353 118.154 449.977 116.963 451.229 115.479L452.546 116.223C451.29 119.689 451.751 124.581 453.746 128.809C454.72 130.89 455.97 132.63 457.481 133.98L456.738 135.296C452.851 134.051 447.055 134.87 443.26 136.902C441.354 137.934 439.926 139.071 438.945 140.294L437.629 139.551Z" fill="white"/>
<path d="M457.322 160.355C456.986 160.084 456.798 159.762 456.759 159.391C456.723 159.053 456.84 158.717 457.112 158.381L467.787 145.161C468.982 143.719 470.383 142.691 471.99 142.076C473.631 141.458 475.301 141.28 477.002 141.543C478.721 141.82 480.309 142.547 481.765 143.723C483.259 144.929 484.315 146.353 484.933 147.994C485.567 149.616 485.745 151.287 485.467 153.006C485.208 154.74 484.476 156.354 483.269 157.848C482.078 159.323 480.671 160.377 479.049 161.011C477.446 161.659 475.796 161.869 474.099 161.64C472.417 161.393 470.857 160.688 469.419 159.527C468.168 158.517 467.241 157.336 466.636 155.984C466.065 154.628 465.825 153.263 465.918 151.888L459.269 160.122C458.997 160.458 458.683 160.637 458.327 160.658C457.975 160.712 457.64 160.611 457.322 160.355ZM470.751 157.363C471.834 158.238 473.008 158.77 474.274 158.959C475.54 159.149 476.77 159.001 477.964 158.515C479.192 158.026 480.251 157.23 481.141 156.129C482.045 155.008 482.6 153.806 482.804 152.521C483.028 151.252 482.913 150.018 482.462 148.82C482.025 147.604 481.265 146.558 480.182 145.684C479.118 144.824 477.945 144.309 476.664 144.138C475.398 143.949 474.168 144.097 472.974 144.583C471.779 145.068 470.73 145.871 469.825 146.992C468.936 148.093 468.372 149.288 468.133 150.576C467.91 151.846 468.025 153.08 468.476 154.278C468.928 155.475 469.686 156.504 470.751 157.363Z" fill="white"/>
<path d="M489.879 161.021C490.969 160.005 492.173 159.318 493.492 158.961C494.829 158.621 496.135 158.604 497.412 158.909C498.706 159.232 499.852 159.878 500.849 160.85C501.64 161.62 502.142 162.326 502.354 162.968C502.566 163.61 502.411 164.096 501.89 164.425C501.57 164.616 501.282 164.671 501.026 164.59C500.788 164.525 500.556 164.367 500.332 164.115C500.126 163.88 499.885 163.612 499.609 163.31C498.73 162.286 497.77 161.552 496.728 161.108C495.721 160.663 494.709 160.515 493.693 160.664C492.694 160.83 491.801 161.318 491.014 162.126L489.879 161.021ZM481.57 169.863C481.26 169.562 481.103 169.241 481.099 168.902C481.094 168.562 481.243 168.238 481.544 167.928L493.374 155.781C493.675 155.471 493.995 155.314 494.335 155.31C494.674 155.305 494.999 155.454 495.308 155.755C495.618 156.057 495.775 156.377 495.779 156.716C495.784 157.056 495.635 157.38 495.334 157.69L483.504 169.837C483.203 170.147 482.882 170.304 482.543 170.308C482.204 170.313 481.879 170.164 481.57 169.863Z" fill="white"/>
<path d="M497.639 186.994C496.389 185.536 495.601 183.952 495.273 182.242C494.945 180.531 495.074 178.856 495.66 177.216C496.245 175.576 497.267 174.131 498.725 172.882C500.201 171.617 501.794 170.82 503.504 170.492C505.215 170.164 506.89 170.293 508.53 170.879C510.17 171.465 511.614 172.487 512.864 173.944C514.113 175.402 514.894 176.977 515.207 178.669C515.535 180.379 515.406 182.055 514.82 183.695C514.234 185.335 513.211 186.796 511.751 188.08C510.293 189.329 508.701 190.109 506.975 190.418C505.265 190.746 503.59 190.617 501.95 190.032C500.325 189.464 498.888 188.451 497.639 186.994ZM499.552 185.354C500.458 186.411 501.516 187.147 502.727 187.564C503.937 187.98 505.174 188.059 506.436 187.798C507.699 187.538 508.877 186.939 509.97 186.002C511.064 185.065 511.835 183.993 512.286 182.785C512.754 181.561 512.875 180.32 512.649 179.06C512.423 177.8 511.856 176.641 510.951 175.584C510.045 174.527 508.987 173.791 507.776 173.374C506.566 172.958 505.312 172.878 504.016 173.136C502.753 173.396 501.575 173.995 500.482 174.932C499.389 175.869 498.617 176.942 498.166 178.149C497.732 179.375 497.627 180.618 497.854 181.878C498.08 183.138 498.646 184.297 499.552 185.354Z" fill="white"/>
<path d="M497.335 199.454C497.094 199.125 497.002 198.776 497.059 198.407C497.096 198.052 497.289 197.747 497.637 197.491C497.966 197.25 498.315 197.158 498.684 197.214C499.053 197.271 499.358 197.464 499.6 197.793C500.253 198.683 501.021 199.325 501.905 199.718C502.789 200.112 503.711 200.254 504.672 200.144C505.648 200.054 506.581 199.682 507.471 199.029L522.218 188.213C522.566 187.957 522.908 187.856 523.243 187.907C523.612 187.964 523.917 188.157 524.159 188.486C524.4 188.815 524.492 189.164 524.436 189.533C524.398 189.888 524.205 190.193 523.857 190.448L509.11 201.264C507.794 202.229 506.411 202.798 504.959 202.97C503.508 203.141 502.115 202.927 500.782 202.327C499.45 201.728 498.301 200.77 497.335 199.454ZM527.156 186.242C526.844 185.817 526.729 185.335 526.812 184.799C526.894 184.262 527.158 183.83 527.603 183.504C528.087 183.149 528.578 183.027 529.076 183.138C529.608 183.254 530.03 183.525 530.342 183.951C530.64 184.357 530.757 184.821 530.694 185.344C530.665 185.872 530.408 186.313 529.924 186.668C529.479 186.994 528.988 187.116 528.451 187.034C527.914 186.951 527.483 186.687 527.156 186.242Z" fill="white"/>
<path d="M517.745 214.52C516.718 212.87 516.162 211.18 516.077 209.453C516.024 207.733 516.412 206.107 517.239 204.575C518.08 203.063 519.325 201.793 520.976 200.767C522.647 199.727 524.323 199.151 526.005 199.037C527.72 198.932 529.318 199.252 530.8 199.998C532.281 200.744 533.51 201.901 534.486 203.47C535.45 205.019 535.93 206.586 535.926 208.171C535.956 209.764 535.546 211.262 534.696 212.667C533.845 214.072 532.626 215.269 531.036 216.258C530.71 216.461 530.382 216.524 530.051 216.447C529.741 216.357 529.484 216.149 529.282 215.823L521.2 202.832L523.157 201.615L531.39 214.851L529.625 214.126C530.819 213.411 531.746 212.538 532.405 211.506C533.063 210.475 533.397 209.377 533.408 208.211C533.43 207.067 533.087 205.924 532.377 204.782C531.654 203.621 530.745 202.773 529.65 202.239C528.555 201.705 527.366 201.498 526.083 201.617C524.834 201.744 523.588 202.194 522.345 202.968C521.102 203.741 520.166 204.69 519.538 205.816C518.922 206.962 518.631 208.175 518.664 209.455C518.697 210.734 519.093 211.986 519.854 213.208C520.31 213.942 520.889 214.599 521.59 215.181C522.324 215.77 523.024 216.169 523.69 216.376C524.013 216.486 524.263 216.684 524.44 216.969C524.638 217.242 524.719 217.531 524.683 217.836C524.603 218.253 524.421 218.55 524.135 218.728C523.863 218.926 523.548 218.966 523.192 218.848C522.203 218.53 521.192 217.972 520.158 217.174C519.145 216.363 518.341 215.478 517.745 214.52Z" fill="white"/>
<path d="M528.211 233.505C527.368 231.806 527.004 230.098 527.116 228.381C527.262 226.675 527.82 225.099 528.79 223.653C529.772 222.229 531.112 221.096 532.81 220.253C534.53 219.4 536.249 219.004 537.966 219.063C539.683 219.122 541.243 219.594 542.646 220.479C544.071 221.353 545.194 222.618 546.015 224.273C546.665 225.585 547.005 226.917 547.032 228.269C547.071 229.643 546.782 231.006 546.166 232.356C546.025 232.72 545.788 232.945 545.455 233.03C545.143 233.104 544.806 233.044 544.441 232.849C544.152 232.698 543.954 232.461 543.848 232.139C543.774 231.828 543.812 231.5 543.964 231.157C544.765 229.207 544.696 227.285 543.757 225.393C543.16 224.189 542.342 223.269 541.303 222.632C540.275 222.017 539.127 221.702 537.861 221.687C536.605 221.693 535.321 222.022 534.01 222.672C532.72 223.312 531.703 224.151 530.959 225.19C530.215 226.229 529.792 227.376 529.692 228.631C529.591 229.887 529.85 231.138 530.468 232.385C530.884 233.224 531.37 233.934 531.926 234.515C532.515 235.107 533.179 235.555 533.918 235.858C534.261 236.009 534.513 236.219 534.673 236.488C534.833 236.757 534.875 237.058 534.799 237.39C534.69 237.765 534.491 238.039 534.2 238.209C533.921 238.402 533.615 238.433 533.282 238.303C531.063 237.448 529.373 235.848 528.211 233.505Z" fill="white"/>
<path d="M536.681 252.557C536.21 251.375 536.066 250.205 536.25 249.047C536.443 247.911 536.912 246.884 537.658 245.967C538.425 245.041 539.433 244.329 540.682 243.831L557.034 237.312C557.413 237.161 557.77 237.148 558.104 237.273C558.447 237.421 558.694 237.684 558.845 238.063C558.996 238.442 558.998 238.803 558.85 239.146C558.703 239.489 558.44 239.736 558.061 239.887L541.708 246.406C540.571 246.859 539.768 247.567 539.299 248.529C538.852 249.482 538.838 250.483 539.256 251.53L539.616 252.433C539.758 252.79 539.751 253.129 539.594 253.449C539.438 253.77 539.17 254.006 538.791 254.157C538.412 254.308 538.047 254.299 537.695 254.129C537.365 253.95 537.121 253.66 536.961 253.259L536.681 252.557ZM548.744 238.098C548.611 237.763 548.6 237.445 548.712 237.142C548.846 236.83 549.069 236.612 549.381 236.488C549.715 236.354 550.027 236.359 550.317 236.502C550.629 236.636 550.851 236.87 550.984 237.205L554.384 245.732C554.517 246.066 554.517 246.39 554.383 246.701C554.271 247.004 554.048 247.222 553.713 247.356C553.401 247.48 553.089 247.475 552.778 247.341C552.488 247.198 552.277 246.96 552.143 246.625L548.744 238.098Z" fill="white"/>
<path d="M543.021 278.046C545.899 276.783 549.152 273.723 551.197 268.921C552.212 266.559 552.693 264.291 552.623 262.195L554.091 261.834C556.005 265.553 559.615 268.782 563.826 270.38C565.953 271.192 567.933 271.558 569.872 271.453L570.232 272.921C566.847 274.383 563.601 278.071 561.889 282.421C561.042 284.557 560.631 286.659 560.684 288.685L559.215 289.046C557.458 285.362 552.89 281.702 548.809 280.331C546.752 279.65 544.945 279.39 543.382 279.514L543.021 278.046Z" fill="white"/>
<path d="M549.945 308.933C549.922 308.622 549.985 308.341 550.135 308.089C550.285 307.837 550.488 307.654 550.745 307.539L567.135 300.702C567.723 300.514 568.191 300.492 568.538 300.635C568.91 300.776 569.114 301.098 569.151 301.601C569.174 301.912 569.11 302.193 568.96 302.445C568.81 302.696 568.56 302.895 568.21 303.041L553.318 309.154L553.26 308.364L568.824 311.876C569.142 311.949 569.405 312.086 569.612 312.287C569.845 312.511 569.975 312.802 570.001 313.161C570.027 313.52 569.953 313.815 569.777 314.044C569.603 314.298 569.352 314.484 569.024 314.605L554.485 320.114L554.44 319.504L569.699 323.291C570.411 323.479 570.791 323.896 570.838 324.543C570.877 325.069 570.7 325.443 570.307 325.665C569.938 325.884 569.495 325.917 568.979 325.762L551.764 321.397C551.494 321.321 551.266 321.169 551.081 320.942C550.897 320.739 550.794 320.482 550.771 320.171C550.749 319.86 550.811 319.566 550.959 319.291C551.109 319.039 551.313 318.868 551.571 318.776L566.246 313.149L566.278 313.58L550.937 310.16C550.643 310.085 550.404 309.934 550.218 309.707C550.057 309.478 549.966 309.22 549.945 308.933Z" fill="white"/>
<path d="M550.583 339.048C550.651 337.105 551.132 335.393 552.024 333.911C552.94 332.454 554.169 331.321 555.71 330.511C557.251 329.724 558.993 329.365 560.935 329.434C562.902 329.503 564.615 329.96 566.074 330.803C567.557 331.672 568.705 332.829 569.518 334.275C570.332 335.72 570.706 337.366 570.641 339.213C570.577 341.036 570.102 342.604 569.215 343.918C568.351 345.257 567.175 346.272 565.686 346.964C564.196 347.656 562.516 347.969 560.645 347.903C560.262 347.89 559.954 347.759 559.723 347.51C559.515 347.263 559.418 346.947 559.432 346.564L559.97 331.273L562.273 331.354L561.724 346.932L560.663 345.346C562.054 345.419 563.31 345.211 564.432 344.722C565.554 344.233 566.444 343.508 567.102 342.547C567.759 341.609 568.112 340.469 568.159 339.126C568.207 337.759 567.925 336.548 567.314 335.494C566.703 334.44 565.832 333.605 564.701 332.988C563.593 332.397 562.307 332.076 560.844 332.024C559.381 331.973 558.075 332.239 556.926 332.823C555.776 333.431 554.857 334.275 554.171 335.356C553.484 336.436 553.116 337.696 553.065 339.135C553.035 339.998 553.148 340.867 553.406 341.741C553.686 342.639 554.045 343.36 554.482 343.904C554.689 344.175 554.786 344.479 554.774 344.815C554.787 345.151 554.693 345.436 554.492 345.669C554.193 345.971 553.876 346.116 553.54 346.104C553.204 346.116 552.921 345.974 552.691 345.678C552.047 344.863 551.519 343.835 551.106 342.596C550.718 341.358 550.543 340.175 550.583 339.048Z" fill="white"/>
<path d="M548.514 361.643C548.773 359.789 549.435 358.173 550.5 356.795C551.562 355.441 552.891 354.427 554.487 353.754C556.104 353.107 557.842 352.902 559.699 353.137L576.527 355.488C576.955 355.548 577.271 355.713 577.476 355.984C577.701 356.282 577.783 356.645 577.724 357.073C577.667 357.477 577.492 357.779 577.197 357.98C576.923 358.209 576.572 358.293 576.144 358.233L565.662 356.769C566.669 357.709 567.416 358.868 567.902 360.244C568.409 361.648 568.551 363.146 568.329 364.738C568.073 366.569 567.404 368.147 566.322 369.474C565.264 370.805 563.928 371.781 562.314 372.404C560.697 373.051 558.95 373.243 557.072 372.98C555.171 372.715 553.533 372.038 552.158 370.949C550.78 369.884 549.756 368.541 549.086 366.921C548.439 365.304 548.249 363.545 548.514 361.643ZM551.01 361.992C550.818 363.371 550.966 364.651 551.455 365.834C551.968 367.021 552.739 368.001 553.77 368.775C554.798 369.573 556.025 370.071 557.451 370.271C558.853 370.467 560.158 370.322 561.365 369.836C562.592 369.377 563.603 368.646 564.397 367.642C565.192 366.639 565.685 365.448 565.878 364.069C566.067 362.714 565.917 361.445 565.428 360.262C564.939 359.079 564.167 358.099 563.113 357.321C562.082 356.547 560.865 356.062 559.463 355.867C558.037 355.667 556.722 355.799 555.519 356.261C554.315 356.723 553.304 357.454 552.486 358.454C551.691 359.458 551.199 360.637 551.01 361.992Z" fill="white"/>
<path d="M544.382 382.9C544.715 381.524 545.279 380.216 546.074 378.976C546.868 377.736 547.833 376.81 548.97 376.196C549.312 376.007 549.652 375.979 549.991 376.11C550.329 376.242 550.59 376.49 550.773 376.855C550.927 377.239 550.939 377.599 550.807 377.938C550.676 378.276 550.454 378.531 550.14 378.702C549.352 379.104 548.672 379.717 548.102 380.542C547.526 381.39 547.102 382.374 546.831 383.494C546.413 385.22 546.402 386.538 546.798 387.449C547.218 388.366 547.845 388.938 548.679 389.165C549.519 389.368 550.303 389.138 551.032 388.475C551.784 387.818 552.532 386.616 553.276 384.87C554.22 382.605 555.291 381.037 556.49 380.167C557.689 379.297 558.93 379.017 560.212 379.328C561.402 379.616 562.317 380.172 562.957 380.994C563.598 381.815 563.989 382.799 564.131 383.945C564.273 385.091 564.192 386.293 563.887 387.553C563.508 389.116 562.915 390.392 562.107 391.381C561.293 392.394 560.347 393.14 559.268 393.62C558.908 393.78 558.571 393.796 558.255 393.671C557.94 393.545 557.717 393.293 557.586 392.916C557.491 392.596 557.512 392.256 557.649 391.894C557.803 391.561 558.052 391.3 558.394 391.111C559.212 390.692 559.865 390.134 560.355 389.438C560.868 388.748 561.246 387.901 561.489 386.898C561.8 385.615 561.781 384.524 561.431 383.624C561.104 382.73 560.544 382.187 559.751 381.995C559.215 381.865 558.715 381.891 558.25 382.075C557.78 382.282 557.309 382.699 556.836 383.325C556.358 383.975 555.858 384.916 555.337 386.148C554.633 387.829 553.88 389.104 553.077 389.971C552.292 390.867 551.475 391.435 550.627 391.674C549.797 391.942 548.95 391.971 548.087 391.762C546.991 391.496 546.102 390.935 545.42 390.079C544.756 389.251 544.33 388.209 544.14 386.953C543.945 385.721 544.026 384.37 544.382 382.9Z" fill="white"/>
<path d="M540.668 396.805C540.798 396.393 541.018 396.098 541.326 395.918C541.651 395.769 542.019 395.76 542.43 395.891L558.525 400.993C558.937 401.124 559.221 401.34 559.377 401.641C559.549 401.972 559.57 402.344 559.439 402.756C559.316 403.145 559.092 403.414 558.768 403.563C558.459 403.742 558.099 403.766 557.687 403.636L541.593 398.533C541.181 398.403 540.889 398.172 540.717 397.84C540.561 397.539 540.544 397.194 540.668 396.805ZM563.019 403.853C563.178 403.35 563.499 402.973 563.981 402.723C564.463 402.473 564.968 402.431 565.494 402.598C566.066 402.78 566.454 403.104 566.658 403.572C566.878 404.069 566.908 404.57 566.748 405.073C566.596 405.554 566.29 405.922 565.831 406.18C565.388 406.467 564.88 406.52 564.308 406.339C563.782 406.172 563.394 405.848 563.144 405.365C562.894 404.883 562.852 404.379 563.019 403.853Z" fill="white"/>
<path d="M535.33 411.885C535.78 410.695 536.464 409.735 537.382 409.004C538.291 408.296 539.33 407.855 540.499 407.682C541.69 407.516 542.915 407.671 544.172 408.147L560.638 414.374C561.019 414.518 561.291 414.749 561.453 415.067C561.607 415.407 561.611 415.768 561.467 416.15C561.323 416.532 561.08 416.799 560.74 416.953C560.4 417.106 560.039 417.111 559.657 416.967L543.191 410.74C542.046 410.307 540.976 410.287 539.981 410.68C539.008 411.082 538.322 411.81 537.923 412.865L537.579 413.775C537.443 414.134 537.209 414.379 536.877 414.51C536.546 414.641 536.189 414.635 535.807 414.49C535.426 414.346 535.162 414.092 535.017 413.73C534.895 413.375 534.91 412.996 535.063 412.592L535.33 411.885ZM553.99 409.358C554.117 409.021 554.325 408.779 554.612 408.631C554.921 408.491 555.233 408.481 555.547 408.6C555.884 408.727 556.111 408.941 556.228 409.242C556.367 409.551 556.374 409.875 556.246 410.211L552.999 418.798C552.872 419.134 552.653 419.373 552.344 419.512C552.057 419.66 551.745 419.671 551.408 419.543C551.094 419.424 550.867 419.21 550.728 418.901C550.611 418.6 550.616 418.281 550.743 417.945L553.99 409.358Z" fill="white"/>
<path d="M529.073 425.674C529.903 423.916 531.021 422.533 532.427 421.525C533.844 420.549 535.42 419.994 537.157 419.859C538.882 419.745 540.624 420.104 542.382 420.934C544.161 421.775 545.554 422.872 546.561 424.224C547.58 425.607 548.177 427.124 548.353 428.773C548.529 430.423 548.222 432.083 547.433 433.754C546.653 435.403 545.597 436.655 544.263 437.512C542.941 438.4 541.459 438.867 539.817 438.915C538.176 438.962 536.509 438.585 534.816 437.785C534.469 437.621 534.238 437.38 534.124 437.06C534.031 436.751 534.067 436.422 534.231 436.075L540.768 422.242L542.851 423.227L536.191 437.32L535.843 435.444C537.092 436.06 538.328 436.366 539.551 436.36C540.775 436.354 541.879 436.04 542.864 435.417C543.838 434.816 544.613 433.907 545.187 432.692C545.771 431.455 545.991 430.232 545.846 429.022C545.701 427.812 545.231 426.701 544.436 425.688C543.652 424.707 542.598 423.903 541.274 423.278C539.951 422.652 538.646 422.381 537.359 422.463C536.062 422.567 534.885 422.979 533.828 423.701C532.77 424.422 531.934 425.433 531.318 426.735C530.949 427.516 530.71 428.359 530.601 429.263C530.504 430.2 530.549 431.004 530.735 431.676C530.818 432.007 530.787 432.324 530.644 432.628C530.522 432.942 530.323 433.167 530.047 433.302C529.653 433.461 529.304 433.468 529.001 433.325C528.686 433.203 528.483 432.961 528.389 432.598C528.119 431.594 528.04 430.442 528.151 429.141C528.283 427.849 528.591 426.694 529.073 425.674Z" fill="white"/>
<path d="M511.655 453.385C514.517 454.682 518.967 455.058 523.907 453.372C526.342 452.548 528.351 451.391 529.864 449.939L531.113 450.79C529.625 454.699 529.634 459.542 531.259 463.742C532.075 465.868 533.126 467.586 534.5 468.958L533.648 470.208C530.299 468.665 525.386 468.714 521.005 470.346C518.85 471.143 517.012 472.242 515.539 473.635L514.29 472.783C515.857 469.015 515.528 463.17 513.821 459.219C512.953 457.232 511.94 455.714 510.803 454.634L511.655 453.385Z" fill="white"/>
<path d="M490.203 482.211C491.477 480.873 492.932 479.972 494.567 479.507C496.22 479.06 497.892 479.044 499.583 479.461C501.257 479.895 502.781 480.766 504.154 482.074C505.544 483.398 506.489 484.894 506.988 486.562C507.471 488.248 507.503 489.937 507.086 491.627C506.687 493.335 505.833 494.875 504.526 496.248C503.218 497.621 501.73 498.54 500.061 499.005C498.392 499.504 496.713 499.546 495.022 499.129C493.315 498.729 491.757 497.876 490.35 496.569L490.494 495.165C489.243 493.974 488.395 492.602 487.949 491.051C487.505 489.534 487.467 487.991 487.836 486.42C488.206 484.883 488.995 483.48 490.203 482.211ZM491.829 484.158C490.869 485.166 490.252 486.284 489.976 487.513C489.684 488.76 489.731 489.998 490.118 491.228C490.505 492.491 491.212 493.611 492.237 494.588C493.28 495.581 494.433 496.232 495.697 496.54C496.944 496.866 498.183 496.853 499.414 496.5C500.645 496.182 501.741 495.518 502.701 494.51C503.644 493.519 504.253 492.393 504.528 491.13C504.82 489.883 504.781 488.637 504.411 487.389C504.041 486.142 503.334 485.022 502.292 484.029C501.266 483.053 500.113 482.402 498.832 482.077C497.568 481.768 496.321 481.79 495.09 482.143C493.86 482.495 492.773 483.167 491.829 484.158ZM484.201 488.775C484.483 488.48 484.801 488.319 485.157 488.293C485.53 488.284 485.865 488.42 486.16 488.702L490.618 492.947L492.206 495.403L490.35 496.569L484.224 490.735C483.928 490.454 483.776 490.126 483.767 489.753C483.775 489.397 483.92 489.07 484.201 488.775Z" fill="white"/>
<path d="M486.774 502.825C487.701 503.992 488.291 505.246 488.543 506.589C488.777 507.948 488.691 509.252 488.286 510.501C487.863 511.766 487.128 512.857 486.082 513.775C485.252 514.503 484.508 514.947 483.851 515.108C483.195 515.269 482.722 515.077 482.435 514.531C482.27 514.197 482.238 513.906 482.339 513.657C482.423 513.424 482.599 513.206 482.867 513.003C483.117 512.815 483.404 512.596 483.726 512.345C484.816 511.549 485.623 510.65 486.148 509.647C486.671 508.677 486.898 507.68 486.829 506.656C486.742 505.646 486.327 504.718 485.583 503.87L486.774 502.825ZM478.613 493.846C478.938 493.561 479.27 493.43 479.608 493.452C479.947 493.474 480.259 493.648 480.544 493.973L491.723 506.721C492.008 507.046 492.139 507.378 492.117 507.717C492.095 508.055 491.921 508.367 491.596 508.652C491.272 508.937 490.94 509.068 490.601 509.046C490.262 509.024 489.951 508.85 489.666 508.525L478.486 495.777C478.202 495.452 478.07 495.12 478.093 494.781C478.115 494.443 478.288 494.131 478.613 493.846Z" fill="white"/>
<path d="M461.391 507.944C462.402 507.173 463.49 506.72 464.655 506.585C465.802 506.465 466.917 506.641 468.001 507.112C469.099 507.602 470.056 508.381 470.871 509.45L481.551 523.444C481.798 523.769 481.907 524.109 481.876 524.464C481.826 524.834 481.639 525.143 481.315 525.39C480.991 525.638 480.644 525.737 480.273 525.687C479.903 525.637 479.595 525.45 479.347 525.126L468.668 511.131C467.925 510.158 467.028 509.575 465.975 509.382C464.936 509.209 463.969 509.464 463.072 510.148L462.3 510.738C461.994 510.971 461.666 511.055 461.315 510.991C460.964 510.927 460.665 510.732 460.418 510.408C460.17 510.084 460.081 509.729 460.149 509.344C460.233 508.979 460.446 508.665 460.79 508.403L461.391 507.944ZM478.563 515.671C478.849 515.453 479.153 515.357 479.475 515.383C479.811 515.428 480.081 515.584 480.285 515.851C480.504 516.138 480.583 516.439 480.523 516.757C480.478 517.093 480.312 517.37 480.026 517.589L472.728 523.158C472.442 523.376 472.131 523.463 471.794 523.418C471.472 523.391 471.202 523.235 470.984 522.949C470.78 522.682 470.701 522.38 470.746 522.044C470.806 521.727 470.979 521.459 471.265 521.24L478.563 515.671Z" fill="white"/>
<path d="M450.344 515.324C451.532 514.554 452.84 513.991 454.269 513.636C455.698 513.281 457.036 513.271 458.283 513.606C458.662 513.703 458.929 513.916 459.084 514.245C459.24 514.573 459.259 514.932 459.141 515.324C458.99 515.708 458.75 515.978 458.422 516.134C458.094 516.289 457.757 516.322 457.412 516.231C456.563 515.981 455.648 515.959 454.667 516.167C453.666 516.387 452.682 516.811 451.715 517.438C450.226 518.405 449.312 519.356 448.974 520.29C448.649 521.245 448.712 522.091 449.162 522.829C449.633 523.554 450.36 523.925 451.345 523.944C452.343 523.983 453.712 523.624 455.453 522.867C457.695 521.869 459.551 521.466 461.019 521.658C462.488 521.849 463.582 522.498 464.3 523.606C464.967 524.632 465.25 525.664 465.151 526.702C465.051 527.739 464.66 528.723 463.976 529.653C463.292 530.583 462.406 531.401 461.319 532.106C459.97 532.981 458.663 533.501 457.396 533.665C456.109 533.842 454.909 533.734 453.795 533.341C453.424 533.21 453.167 532.99 453.024 532.682C452.882 532.374 452.893 532.038 453.057 531.674C453.207 531.376 453.456 531.143 453.804 530.974C454.146 530.839 454.505 530.82 454.884 530.918C455.766 531.175 456.624 531.219 457.458 531.05C458.305 530.9 459.162 530.545 460.028 529.983C461.135 529.265 461.87 528.458 462.234 527.564C462.611 526.69 462.578 525.911 462.134 525.226C461.833 524.763 461.451 524.439 460.987 524.253C460.503 524.081 459.875 524.06 459.101 524.19C458.307 524.333 457.297 524.674 456.073 525.211C454.406 525.949 452.983 526.358 451.804 526.436C450.617 526.548 449.634 526.399 448.854 525.99C448.066 525.614 447.431 525.054 446.947 524.309C446.333 523.363 446.073 522.344 446.166 521.254C446.253 520.197 446.658 519.146 447.384 518.104C448.089 517.074 449.075 516.147 450.344 515.324Z" fill="white"/>
<path d="M421.864 529.451C423.635 532.048 427.24 534.682 432.337 535.81C434.845 536.373 437.163 536.429 439.21 535.975L439.834 537.352C436.531 539.917 434.021 544.059 433.224 548.491C432.817 550.731 432.821 552.745 433.281 554.632L431.904 555.256C429.845 552.197 425.623 549.685 421.032 548.801C418.777 548.361 416.635 548.344 414.653 548.768L414.029 547.391C417.327 544.987 420.085 539.823 420.682 535.561C420.973 533.413 420.897 531.589 420.487 530.075L421.864 529.451Z" fill="white"/>
<path d="M388.423 543.26C389.644 542.905 390.823 542.875 391.958 543.17C393.071 543.471 394.047 544.037 394.889 544.867C395.737 545.72 396.348 546.792 396.724 548.082L401.639 564.986C401.753 565.378 401.732 565.734 401.575 566.055C401.395 566.382 401.11 566.602 400.718 566.716C400.326 566.83 399.966 566.797 399.639 566.617C399.312 566.438 399.091 566.152 398.978 565.76L394.062 548.856C393.72 547.681 393.093 546.814 392.18 546.254C391.275 545.718 390.28 545.607 389.197 545.922L388.264 546.194C387.895 546.301 387.558 546.261 387.254 546.075C386.95 545.888 386.741 545.599 386.627 545.207C386.513 544.815 386.558 544.453 386.761 544.119C386.97 543.808 387.282 543.592 387.697 543.471L388.423 543.26ZM401.655 556.659C402 556.558 402.318 556.578 402.609 556.718C402.907 556.882 403.102 557.125 403.196 557.447C403.297 557.793 403.262 558.103 403.092 558.378C402.928 558.675 402.674 558.874 402.328 558.975L393.513 561.538C393.168 561.639 392.846 561.607 392.548 561.444C392.258 561.303 392.062 561.06 391.962 560.715C391.868 560.392 391.903 560.082 392.066 559.784C392.236 559.51 392.494 559.322 392.84 559.222L401.655 556.659Z" fill="white"/>
<path d="M376.889 537.318C377.077 537.278 377.298 537.281 377.552 537.326C378.425 537.511 378.766 538.028 378.576 538.877L372.445 566.348C372.25 567.173 371.731 567.503 370.887 567.336C370.019 567.174 369.68 566.669 369.871 565.82L376.036 538.342C376.158 537.753 376.442 537.411 376.889 537.318ZM374.858 547.122C375.176 546.884 375.497 546.779 375.822 546.81C376.152 546.863 376.448 547.046 376.71 547.359L387.975 561.994C388.213 562.312 388.305 562.636 388.252 562.966C388.198 563.296 388.012 563.58 387.694 563.818C387.377 564.056 387.053 564.149 386.723 564.095C386.398 564.065 386.116 563.891 385.878 563.573L374.754 548.909C374.492 548.596 374.365 548.279 374.371 547.959C374.378 547.639 374.54 547.36 374.858 547.122Z" fill="white"/>
<path d="M361.435 540.503C361.865 540.457 362.225 540.551 362.516 540.785C362.78 540.998 362.935 541.319 362.982 541.749L364.803 558.643C364.98 560.507 364.719 562.224 364.019 563.796C363.299 565.395 362.245 566.703 360.858 567.722C359.447 568.743 357.811 569.354 355.95 569.555C354.041 569.761 352.288 569.503 350.689 568.782C349.093 568.085 347.785 567.032 346.763 565.621C345.718 564.213 345.093 562.554 344.887 560.645C344.684 558.76 344.931 557.02 345.628 555.424C346.301 553.831 347.317 552.514 348.678 551.474C350.041 550.458 351.641 549.851 353.478 549.653C355.077 549.481 356.569 549.658 357.953 550.184C359.316 550.737 360.452 551.532 361.36 552.569L360.226 542.046C360.179 541.616 360.275 541.268 360.511 541.001C360.722 540.713 361.03 540.547 361.435 540.503ZM354.071 552.124C352.687 552.273 351.481 552.729 350.452 553.492C349.424 554.254 348.66 555.23 348.161 556.418C347.64 557.633 347.456 558.944 347.607 560.352C347.762 561.784 348.222 563.026 348.987 564.078C349.728 565.132 350.682 565.923 351.85 566.448C353.019 566.998 354.296 567.199 355.68 567.049C357.04 566.903 358.233 566.436 359.259 565.65C360.287 564.887 361.051 563.911 361.55 562.723C362.049 561.535 362.222 560.225 362.068 558.793C361.916 557.385 361.468 556.142 360.724 555.063C359.983 554.009 359.029 553.219 357.861 552.693C356.694 552.167 355.431 551.977 354.071 552.124Z" fill="white"/>
<path d="M330.688 550.868C332.608 550.871 334.323 551.306 335.834 552.172C337.344 553.039 338.53 554.229 339.392 555.742C340.253 557.255 340.683 558.972 340.679 560.892C340.676 562.836 340.241 564.563 339.375 566.074C338.509 567.585 337.319 568.771 335.805 569.632C334.292 570.494 332.575 570.923 330.655 570.92C328.735 570.917 327.032 570.482 325.545 569.615C324.035 568.749 322.849 567.559 321.987 566.046C321.125 564.532 320.684 562.804 320.663 560.86C320.667 558.94 321.113 557.224 322.004 555.714C322.87 554.203 324.06 553.017 325.574 552.156C327.063 551.294 328.768 550.865 330.688 550.868ZM330.684 553.388C329.292 553.386 328.043 553.708 326.938 554.354C325.833 555 324.968 555.887 324.342 557.014C323.716 558.14 323.402 559.424 323.399 560.864C323.397 562.304 323.707 563.588 324.329 564.718C324.951 565.871 325.814 566.772 326.917 567.422C328.02 568.072 329.267 568.398 330.659 568.4C332.051 568.402 333.3 568.08 334.405 567.434C335.51 566.788 336.387 565.889 337.037 564.738C337.663 563.611 337.977 562.328 337.979 560.888C337.982 559.448 337.672 558.163 337.05 557.034C336.404 555.905 335.529 555.016 334.426 554.366C333.323 553.716 332.076 553.39 330.684 553.388Z" fill="white"/>
<path d="M307.503 549.663C309.388 549.87 311.012 550.47 312.376 551.465C313.737 552.484 314.752 553.79 315.422 555.385C316.068 556.977 316.285 558.739 316.073 560.671C315.859 562.628 315.239 564.31 314.216 565.719C313.192 567.128 311.883 568.167 310.288 568.837C308.691 569.531 306.938 569.773 305.029 569.564C303.097 569.352 301.438 568.735 300.053 567.714C298.642 566.714 297.601 565.417 296.931 563.822C296.237 562.225 295.986 560.447 296.177 558.488L297.881 557.806C298.075 556.04 298.618 554.506 299.509 553.204C300.398 551.925 301.542 550.964 302.94 550.321C304.312 549.699 305.833 549.48 307.503 549.663ZM307.974 542.073C309.859 542.28 311.477 542.82 312.83 543.692C314.186 544.541 315.262 545.625 316.059 546.944C316.29 547.259 316.375 547.582 316.315 547.914C316.23 548.242 316.021 548.497 315.687 548.678C315.354 548.858 315 548.892 314.626 548.779C314.252 548.665 313.974 548.453 313.79 548.144C313.193 547.209 312.386 546.42 311.37 545.777C310.33 545.132 309.095 544.731 307.663 544.574C306.327 544.427 305.087 544.617 303.943 545.143C302.799 545.67 301.852 546.483 301.104 547.584C300.331 548.683 299.859 550.019 299.686 551.593L299.089 557.033L297.823 558.994L296.177 558.488L296.978 551.188C297.19 549.255 297.809 547.573 298.836 546.14C299.865 544.684 301.167 543.595 302.743 542.875C304.322 542.131 306.065 541.863 307.974 542.073ZM306.942 552.136C305.534 551.982 304.26 552.156 303.118 552.658C301.95 553.182 300.994 553.97 300.251 555.024C299.508 556.077 299.056 557.331 298.896 558.786C298.737 560.242 298.906 561.564 299.403 562.753C299.897 563.966 300.659 564.943 301.689 565.684C302.691 566.446 303.897 566.904 305.304 567.059C306.712 567.213 308 567.029 309.168 566.505C310.333 566.005 311.289 565.217 312.035 564.14C312.778 563.086 313.23 561.832 313.389 560.377C313.549 558.922 313.38 557.599 312.883 556.41C312.386 555.221 311.624 554.244 310.597 553.479C309.568 552.738 308.35 552.291 306.942 552.136Z" fill="white"/>
<path d="M288.346 559.36C287.978 560.803 287.335 562.032 286.418 563.045C285.478 564.053 284.388 564.774 283.148 565.207C281.885 565.635 280.572 565.71 279.208 565.432C278.126 565.211 277.323 564.888 276.797 564.463C276.272 564.037 276.139 563.545 276.4 562.985C276.566 562.652 276.779 562.45 277.038 562.381C277.274 562.306 277.554 562.314 277.878 562.405C278.179 562.491 278.527 562.586 278.922 562.691C280.215 563.078 281.419 563.176 282.536 562.988C283.623 562.818 284.555 562.395 285.329 561.72C286.08 561.041 286.568 560.148 286.794 559.043L288.346 559.36ZM290.559 547.429C290.982 547.515 291.287 547.7 291.474 547.983C291.662 548.266 291.712 548.62 291.626 549.043L288.237 565.657C288.151 566.08 287.966 566.385 287.683 566.573C287.4 566.76 287.047 566.81 286.623 566.724C286.2 566.638 285.895 566.453 285.708 566.17C285.52 565.887 285.47 565.533 285.556 565.11L288.945 548.496C289.031 548.073 289.216 547.768 289.499 547.58C289.782 547.393 290.135 547.343 290.559 547.429Z" fill="white"/>
<path d="M267.624 541.69C269.393 542.223 270.854 543.114 272.007 544.364C273.153 545.636 273.922 547.121 274.313 548.817C274.681 550.507 274.592 552.26 274.046 554.076C273.492 555.914 272.584 557.433 271.321 558.631C270.034 559.823 268.543 560.615 266.846 561.006C265.142 561.421 263.382 561.355 261.567 560.808C259.751 560.261 258.259 559.348 257.091 558.069C255.892 556.806 255.097 555.326 254.705 553.629C254.291 551.925 254.349 550.15 254.88 548.305L256.197 547.799C256.695 546.145 257.536 544.769 258.719 543.671C259.871 542.589 261.232 541.859 262.8 541.479C264.338 541.115 265.946 541.185 267.624 541.69ZM266.621 544.02C265.289 543.619 264.012 543.573 262.791 543.882C261.547 544.184 260.463 544.785 259.541 545.686C258.588 546.602 257.908 547.738 257.499 549.094C257.084 550.473 257.024 551.796 257.32 553.063C257.592 554.323 258.163 555.422 259.034 556.361C259.874 557.316 260.961 557.994 262.293 558.395C263.603 558.789 264.884 558.824 266.135 558.499C267.379 558.196 268.473 557.599 269.419 556.705C270.365 555.812 271.045 554.676 271.46 553.297C271.869 551.941 271.929 550.618 271.64 549.329C271.345 548.062 270.762 546.959 269.892 546.02C269.021 545.081 267.931 544.415 266.621 544.02ZM259.057 539.299C259.448 539.417 259.735 539.629 259.919 539.934C260.095 540.263 260.125 540.623 260.007 541.014L258.233 546.908L256.758 549.434L254.88 548.305L257.319 540.204C257.436 539.814 257.659 539.53 257.988 539.353C258.31 539.2 258.667 539.182 259.057 539.299Z" fill="white"/>
<path d="M255.253 528.992C255.65 529.161 255.919 529.418 256.059 529.764C256.186 530.079 256.165 530.435 255.996 530.833L249.355 546.473C248.602 548.187 247.537 549.56 246.16 550.592C244.751 551.637 243.194 552.266 241.486 552.48C239.757 552.684 238.031 552.42 236.308 551.689C234.54 550.939 233.134 549.859 232.09 548.451C231.035 547.065 230.406 545.507 230.202 543.777C229.975 542.039 230.237 540.286 230.988 538.518C231.729 536.773 232.792 535.373 234.178 534.319C235.543 533.256 237.072 532.602 238.766 532.356C240.452 532.133 242.145 532.383 243.846 533.105C245.326 533.733 246.542 534.615 247.495 535.749C248.416 536.896 249.02 538.144 249.308 539.492L253.445 529.749C253.613 529.352 253.866 529.094 254.203 528.976C254.527 528.827 254.877 528.832 255.253 528.992ZM243.159 535.551C241.878 535.007 240.603 534.818 239.333 534.983C238.064 535.148 236.921 535.627 235.906 536.422C234.859 537.229 234.059 538.284 233.506 539.588C232.943 540.913 232.74 542.222 232.895 543.513C233.029 544.795 233.477 545.95 234.24 546.978C234.994 548.028 236.011 548.825 237.292 549.369C238.552 549.904 239.821 550.078 241.099 549.891C242.369 549.726 243.511 549.246 244.526 548.451C245.542 547.657 246.331 546.597 246.893 545.272C247.447 543.968 247.661 542.664 247.537 541.36C247.404 540.078 246.955 538.923 246.192 537.895C245.43 536.867 244.418 536.086 243.159 535.551Z" fill="white"/>
<path d="M215.893 519.108C216.249 519.308 216.477 519.587 216.579 519.946C216.68 520.306 216.637 520.653 216.449 520.988L211.874 529.154C211.147 530.452 210.8 531.661 210.834 532.78C210.846 533.887 211.164 534.891 211.788 535.79C212.391 536.678 213.226 537.421 214.294 538.019C215.32 538.594 216.363 538.917 217.424 538.989C218.463 539.048 219.417 538.867 220.286 538.446C221.155 538.025 221.835 537.375 222.328 536.495L224.055 537.463C223.274 538.759 222.262 539.732 221.017 540.382C219.76 541.054 218.413 541.372 216.975 541.337C215.525 541.322 214.12 540.934 212.759 540.171C211.272 539.339 210.118 538.28 209.298 536.995C208.465 535.731 208.048 534.314 208.047 532.745C208.024 531.165 208.494 529.516 209.456 527.799L214.031 519.633C214.218 519.298 214.492 519.08 214.851 518.979C215.21 518.877 215.558 518.921 215.893 519.108ZM229.398 526.674C229.775 526.885 230.02 527.16 230.133 527.498C230.213 527.846 230.154 528.197 229.954 528.553L221.685 543.315C221.474 543.692 221.205 543.926 220.878 544.018C220.519 544.12 220.151 544.065 219.774 543.854C219.418 543.654 219.2 543.381 219.119 543.033C219.006 542.695 219.055 542.337 219.266 541.96L227.536 527.199C227.735 526.843 228.015 526.614 228.374 526.513C228.701 526.421 229.042 526.474 229.398 526.674ZM225.474 533.678C225.851 533.889 226.09 534.174 226.192 534.533C226.272 534.881 226.212 535.233 226.013 535.589L217.568 550.664C217.357 551.041 217.088 551.276 216.761 551.368C216.402 551.469 216.034 551.414 215.657 551.203C215.301 551.004 215.083 550.73 215.002 550.383C214.889 550.044 214.938 549.687 215.149 549.31L223.595 534.234C223.794 533.878 224.073 533.649 224.433 533.548C224.771 533.435 225.118 533.478 225.474 533.678Z" fill="white"/>
<path d="M212.608 506.758C212.766 506.867 212.916 507.03 213.059 507.245C213.525 508.006 213.384 508.609 212.637 509.055L188.485 523.508C187.752 523.934 187.155 523.784 186.695 523.057C186.216 522.316 186.35 521.722 187.096 521.276L211.278 506.844C211.79 506.527 212.233 506.498 212.608 506.758ZM204.097 512.03C204.488 512.097 204.785 512.258 204.987 512.515C205.175 512.791 205.245 513.132 205.198 513.537L202.329 531.781C202.262 532.173 202.091 532.463 201.815 532.651C201.538 532.839 201.204 532.9 200.813 532.833C200.421 532.766 200.131 532.595 199.943 532.318C199.741 532.062 199.674 531.738 199.741 531.346L202.728 513.184C202.775 512.779 202.917 512.468 203.154 512.253C203.391 512.037 203.705 511.963 204.097 512.03Z" fill="white"/>
<path d="M180.789 490.511C179.055 493.132 177.98 497.466 178.864 502.61C179.292 505.145 180.117 507.312 181.311 509.035L180.273 510.134C176.649 508.046 171.865 507.29 167.461 508.229C165.233 508.699 163.37 509.465 161.798 510.604L160.699 509.565C162.752 506.503 163.481 501.643 162.562 497.06C162.116 494.806 161.322 492.817 160.18 491.143L161.218 490.044C164.691 492.187 170.514 492.787 174.686 491.727C176.785 491.184 178.444 490.424 179.69 489.472L180.789 490.511Z" fill="white"/>
<path d="M158.261 468.426C158.866 469.171 159.206 470.008 159.28 470.937C159.34 471.847 159.142 472.765 158.688 473.691C158.219 474.597 157.509 475.437 156.559 476.208L140.631 489.146C140.314 489.403 139.987 489.514 139.65 489.479C139.278 489.44 138.964 489.263 138.707 488.946C138.449 488.629 138.348 488.295 138.401 487.942C138.421 487.586 138.589 487.279 138.906 487.022L154.834 474.085C155.635 473.434 156.158 472.746 156.404 472.021C156.635 471.277 156.546 470.654 156.137 470.151L155.57 469.452C155.343 469.173 155.264 468.866 155.333 468.532C155.383 468.213 155.566 467.925 155.883 467.667C156.2 467.41 156.559 467.319 156.96 467.395C157.328 467.467 157.663 467.69 157.966 468.062L158.261 468.426Z" fill="white"/>
<path d="M149.115 455.818C150.203 457.4 150.819 459.059 150.964 460.794C151.109 462.53 150.803 464.182 150.047 465.75C149.29 467.319 148.121 468.647 146.539 469.735C144.937 470.836 143.268 471.459 141.533 471.604C139.797 471.749 138.145 471.443 136.577 470.687C135.008 469.93 133.68 468.761 132.592 467.179C131.504 465.597 130.895 463.948 130.764 462.232C130.619 460.497 130.925 458.845 131.681 457.276C132.438 455.708 133.61 454.363 135.198 453.242C136.78 452.154 138.446 451.547 140.195 451.422C141.93 451.278 143.582 451.584 145.151 452.34C146.706 453.076 148.027 454.236 149.115 455.818ZM147.039 457.246C146.25 456.099 145.276 455.254 144.116 454.711C142.957 454.169 141.736 453.96 140.453 454.085C139.17 454.21 137.935 454.68 136.748 455.496C135.562 456.312 134.68 457.297 134.105 458.45C133.509 459.617 133.257 460.839 133.348 462.115C133.44 463.392 133.88 464.604 134.669 465.751C135.457 466.898 136.431 467.743 137.591 468.286C138.75 468.828 139.988 469.04 141.305 468.921C142.588 468.796 143.822 468.326 145.009 467.51C146.196 466.694 147.077 465.71 147.653 464.556C148.215 463.383 148.451 462.158 148.359 460.881C148.267 459.605 147.827 458.393 147.039 457.246Z" fill="white"/>
<path d="M136.96 436.04C137.861 437.708 138.29 439.386 138.246 441.073C138.181 442.772 137.683 444.35 136.752 445.807C135.809 447.244 134.482 448.424 132.771 449.347C131.04 450.282 129.303 450.729 127.562 450.687C125.821 450.645 124.222 450.158 122.765 449.226C121.286 448.306 120.091 447.002 119.179 445.312C118.255 443.602 117.82 441.886 117.873 440.166C117.894 438.437 118.371 436.843 119.302 435.386C120.222 433.907 121.542 432.69 123.263 431.734L124.792 432.749C126.355 431.905 127.926 431.48 129.504 431.474C131.061 431.479 132.502 431.874 133.826 432.659C135.117 433.434 136.162 434.561 136.96 436.04ZM143.473 432.114C144.374 433.783 144.85 435.422 144.9 437.031C144.972 438.629 144.692 440.13 144.059 441.535C143.931 441.904 143.714 442.158 143.407 442.296C143.088 442.414 142.76 442.387 142.421 442.215C142.083 442.043 141.854 441.771 141.735 441.399C141.616 441.027 141.632 440.677 141.783 440.35C142.213 439.327 142.403 438.215 142.355 437.014C142.295 435.792 141.923 434.547 141.239 433.28C140.6 432.097 139.739 431.185 138.656 430.542C137.573 429.9 136.366 429.583 135.034 429.593C133.692 429.581 132.324 429.952 130.93 430.704L126.115 433.304L123.781 433.377L123.263 431.734L129.725 428.245C131.436 427.322 133.172 426.875 134.934 426.906C136.717 426.925 138.353 427.378 139.841 428.266C141.351 429.142 142.561 430.425 143.473 432.114ZM134.606 436.983C133.933 435.737 133.066 434.787 132.004 434.134C130.909 433.47 129.717 433.131 128.428 433.118C127.139 433.105 125.851 433.446 124.562 434.142C123.274 434.837 122.282 435.727 121.586 436.812C120.868 437.909 120.497 439.091 120.473 440.359C120.416 441.617 120.723 442.869 121.396 444.115C122.069 445.361 122.953 446.316 124.047 446.979C125.121 447.655 126.313 447.993 127.623 447.995C128.912 448.008 130.2 447.667 131.489 446.971C132.777 446.276 133.769 445.386 134.465 444.301C135.161 443.216 135.532 442.034 135.578 440.754C135.603 439.486 135.279 438.229 134.606 436.983Z" fill="white"/>
<path d="M126.686 414.477C127.411 416.255 127.659 418.007 127.429 419.733C127.2 421.46 126.548 423.008 125.474 424.379C124.4 425.75 122.974 426.798 121.196 427.522C119.396 428.256 117.633 428.508 115.907 428.279C114.18 428.05 112.632 427.398 111.261 426.324C109.89 425.25 108.843 423.824 108.118 422.046C107.393 420.268 107.15 418.527 107.388 416.823C107.618 415.097 108.269 413.548 109.343 412.177C110.417 410.807 111.85 409.743 113.641 408.987C115.419 408.262 117.176 408.026 118.911 408.277C120.637 408.507 122.186 409.158 123.557 410.232C124.918 411.284 125.962 412.699 126.686 414.477ZM124.353 415.428C123.827 414.139 123.056 413.106 122.039 412.328C121.023 411.55 119.874 411.085 118.594 410.933C117.314 410.781 116.007 410.977 114.674 411.521C113.34 412.064 112.269 412.838 111.46 413.841C110.629 414.854 110.122 415.994 109.938 417.261C109.755 418.528 109.926 419.806 110.451 421.095C110.977 422.384 111.748 423.417 112.765 424.195C113.781 424.973 114.946 425.444 116.257 425.609C117.537 425.761 118.844 425.566 120.177 425.022C121.511 424.479 122.582 423.705 123.391 422.701C124.191 421.675 124.683 420.529 124.866 419.262C125.049 417.995 124.878 416.717 124.353 415.428Z" fill="white"/>
<path d="M118.945 393.219C119.323 394.433 119.376 395.611 119.104 396.752C118.824 397.87 118.277 398.857 117.463 399.714C116.626 400.579 115.567 401.211 114.283 401.611L97.4774 406.851C97.0879 406.972 96.7314 406.958 96.4079 406.807C96.0773 406.634 95.8513 406.352 95.7298 405.963C95.6084 405.573 95.6344 405.213 95.8078 404.882C95.9813 404.552 96.2628 404.326 96.6523 404.204L113.458 398.964C114.627 398.6 115.482 397.956 116.024 397.033C116.543 396.117 116.634 395.121 116.299 394.044L116.009 393.116C115.895 392.749 115.928 392.412 116.109 392.105C116.289 391.797 116.574 391.582 116.964 391.461C117.353 391.339 117.717 391.377 118.055 391.573C118.37 391.777 118.591 392.085 118.72 392.497L118.945 393.219ZM105.804 406.706C105.911 407.049 105.897 407.368 105.762 407.661C105.605 407.962 105.365 408.162 105.045 408.262C104.701 408.369 104.39 408.341 104.113 408.176C103.812 408.018 103.608 407.767 103.501 407.424L100.769 398.66C100.661 398.316 100.687 397.994 100.844 397.693C100.979 397.4 101.218 397.2 101.562 397.093C101.883 396.993 102.193 397.021 102.494 397.179C102.772 397.344 102.964 397.598 103.071 397.942L105.804 406.706Z" fill="white"/>
<path d="M124.528 381.191C124.57 381.378 124.572 381.6 124.532 381.855C124.364 382.731 123.853 383.082 123.001 382.908L95.418 377.304C94.589 377.125 94.2497 376.611 94.4002 375.764C94.5453 374.894 95.044 374.546 95.8964 374.719L123.487 380.359C124.079 380.469 124.426 380.747 124.528 381.191ZM114.687 379.348C114.931 379.662 115.041 379.981 115.017 380.307C114.97 380.638 114.792 380.937 114.484 381.205L100.068 392.747C99.7545 392.991 99.4323 393.09 99.1014 393.043C98.7705 392.996 98.4829 392.815 98.2387 392.502C97.9945 392.189 97.896 391.866 97.9432 391.535C97.967 391.21 98.1356 390.925 98.4489 390.681L112.898 379.278C113.206 379.011 113.52 378.877 113.84 378.878C114.16 378.878 114.442 379.035 114.687 379.348Z" fill="white"/>
<path d="M121.015 365.773C121.069 366.201 120.982 366.563 120.753 366.858C120.545 367.127 120.227 367.288 119.799 367.343L102.942 369.484C101.082 369.696 99.3595 369.467 97.7745 368.798C96.1626 368.107 94.8344 367.078 93.7898 365.711C92.7421 364.32 92.1003 362.696 91.8644 360.839C91.6225 358.934 91.8467 357.176 92.5371 355.564C93.2036 353.955 94.2325 352.627 95.6235 351.579C97.0116 350.508 98.6579 349.851 100.563 349.609C102.444 349.37 104.188 349.584 105.797 350.251C107.403 350.894 108.739 351.885 109.804 353.226C110.846 354.569 111.483 356.157 111.716 357.991C111.918 359.586 111.77 361.081 111.269 362.475C110.742 363.848 109.969 364.999 108.95 365.926L119.449 364.593C119.878 364.538 120.228 364.627 120.499 364.859C120.791 365.063 120.963 365.368 121.015 365.773ZM109.257 358.63C109.081 357.249 108.603 356.052 107.821 355.038C107.039 354.024 106.049 353.279 104.851 352.802C103.627 352.305 102.312 352.145 100.907 352.324C99.4789 352.505 98.246 352.988 97.2086 353.773C96.1682 354.534 95.3962 355.503 94.8925 356.68C94.365 357.86 94.1889 359.141 94.3643 360.521C94.5367 361.879 95.0258 363.062 95.8316 364.073C96.6135 365.086 97.6033 365.832 98.801 366.308C99.9986 366.785 101.312 366.933 102.74 366.752C104.145 366.573 105.379 366.102 106.444 365.338C107.484 364.576 108.256 363.607 108.76 362.431C109.263 361.254 109.429 359.987 109.257 358.63Z" fill="white"/>
<path d="M110.035 334.996C110.075 336.939 109.691 338.676 108.883 340.205C108.05 341.71 106.887 342.911 105.393 343.806C103.899 344.677 102.18 345.133 100.237 345.174C98.2691 345.215 96.5333 344.855 95.0291 344.094C93.5004 343.31 92.2895 342.219 91.3962 340.821C90.5029 339.423 90.037 337.801 89.9985 335.953C89.9606 334.129 90.3475 332.537 91.1593 331.176C91.9467 329.791 93.0644 328.712 94.5126 327.937C95.9608 327.163 97.6207 326.756 99.4923 326.717C99.8762 326.709 100.191 326.823 100.436 327.058C100.657 327.293 100.771 327.603 100.779 327.987L101.098 343.283L98.794 343.331L98.4695 327.747L99.6175 329.271C98.2253 329.276 96.9828 329.554 95.8901 330.105C94.7973 330.656 93.9492 331.43 93.3458 332.427C92.742 333.399 92.454 334.558 92.482 335.901C92.5105 337.269 92.8594 338.462 93.5287 339.48C94.1981 340.499 95.1146 341.284 96.2784 341.836C97.4176 342.364 98.7191 342.613 100.183 342.582C101.646 342.552 102.936 342.213 104.05 341.566C105.165 340.894 106.034 340 106.659 338.883C107.284 337.765 107.581 336.487 107.551 335.047C107.533 334.184 107.372 333.323 107.066 332.465C106.735 331.584 106.337 330.884 105.87 330.365C105.648 330.106 105.534 329.808 105.527 329.472C105.496 329.137 105.574 328.847 105.761 328.603C106.042 328.285 106.351 328.123 106.687 328.116C107.022 328.085 107.313 328.211 107.559 328.494C108.247 329.272 108.832 330.268 109.314 331.482C109.771 332.697 110.011 333.868 110.035 334.996Z" fill="white"/>
<path d="M110.538 315.1C110.435 316.512 110.095 317.895 109.515 319.249C108.936 320.603 108.136 321.676 107.116 322.468C106.81 322.711 106.479 322.795 106.124 322.721C105.768 322.647 105.47 322.445 105.229 322.115C105.014 321.762 104.943 321.408 105.017 321.053C105.091 320.697 105.268 320.409 105.549 320.189C106.261 319.663 106.83 318.946 107.257 318.039C107.685 317.107 107.941 316.067 108.024 314.918C108.153 313.147 107.946 311.844 107.405 311.011C106.84 310.176 106.127 309.715 105.267 309.629C104.406 309.566 103.67 309.922 103.06 310.696C102.427 311.468 101.887 312.777 101.441 314.621C100.882 317.011 100.084 318.734 99.0449 319.79C98.0059 320.846 96.8281 321.326 95.5115 321.23C94.2907 321.142 93.2968 320.745 92.5298 320.04C91.7627 319.334 91.2148 318.428 90.8859 317.322C90.557 316.215 90.4394 315.016 90.533 313.723C90.6492 312.119 91.0242 310.763 91.658 309.654C92.2935 308.521 93.1041 307.629 94.0897 306.978C94.4182 306.761 94.7483 306.689 95.08 306.761C95.4116 306.833 95.673 307.045 95.8642 307.396C96.0109 307.695 96.0465 308.034 95.9709 308.414C95.873 308.768 95.671 309.066 95.3646 309.308C94.6271 309.857 94.0741 310.514 93.7057 311.282C93.3134 312.047 93.0799 312.945 93.0053 313.974C92.9099 315.291 93.1089 316.364 93.6022 317.194C94.0716 318.022 94.7133 318.465 95.5271 318.524C96.0777 318.564 96.5668 318.455 96.9946 318.198C97.424 317.916 97.8204 317.427 98.1836 316.732C98.5486 316.012 98.8864 315.002 99.1973 313.701C99.6146 311.926 100.148 310.545 100.797 309.558C101.424 308.544 102.136 307.85 102.933 307.475C103.708 307.074 104.538 306.905 105.424 306.969C106.549 307.051 107.518 307.458 108.331 308.191C109.122 308.898 109.715 309.855 110.108 311.062C110.504 312.246 110.647 313.592 110.538 315.1Z" fill="white"/>
<path d="M116.431 283.622C113.292 283.463 109.015 284.744 105.036 288.124C103.073 289.782 101.628 291.595 100.752 293.501L99.2776 293.166C99.23 288.984 97.4461 284.482 94.3957 281.168C92.8569 279.49 91.2497 278.276 89.4687 277.503L89.8033 276.029C93.4846 276.236 98.038 274.39 101.516 271.266C103.229 269.736 104.537 268.039 105.396 266.204L106.871 266.538C106.794 270.619 109.242 275.936 112.278 278.988C113.813 280.517 115.312 281.559 116.766 282.147L116.431 283.622Z" fill="white"/>
<path d="M130.773 258.315C130.61 258.715 130.356 258.988 130.012 259.132C129.699 259.264 129.343 259.248 128.943 259.085L113.207 252.673C111.483 251.944 110.095 250.899 109.043 249.537C107.978 248.144 107.326 246.596 107.087 244.892C106.858 243.165 107.096 241.435 107.803 239.702C108.527 237.924 109.586 236.502 110.979 235.437C112.35 234.363 113.898 233.711 115.625 233.482C117.36 233.23 119.117 233.467 120.895 234.191C122.65 234.907 124.065 235.95 125.139 237.321C126.223 238.669 126.899 240.189 127.169 241.88C127.417 243.561 127.192 245.258 126.494 246.969C125.887 248.458 125.024 249.687 123.903 250.656C122.77 251.594 121.531 252.216 120.188 252.524L129.989 256.518C130.389 256.681 130.65 256.93 130.773 257.265C130.927 257.587 130.927 257.937 130.773 258.315ZM124.038 246.318C124.564 245.029 124.735 243.751 124.551 242.484C124.368 241.217 123.871 240.082 123.062 239.079C122.24 238.044 121.173 237.259 119.862 236.725C118.529 236.181 117.217 235.997 115.928 236.171C114.648 236.323 113.5 236.788 112.483 237.566C111.444 238.335 110.662 239.364 110.136 240.653C109.62 241.92 109.465 243.191 109.67 244.467C109.854 245.734 110.35 246.869 111.159 247.873C111.968 248.876 113.04 249.65 114.373 250.193C115.684 250.728 116.991 250.923 118.294 250.78C119.574 250.628 120.722 250.163 121.739 249.385C122.756 248.608 123.522 247.585 124.038 246.318Z" fill="white"/>
<path d="M136.476 225.85C135.562 227.539 134.365 228.842 132.885 229.761C131.406 230.679 129.796 231.159 128.055 231.199C126.314 231.239 124.599 230.802 122.91 229.888C121.201 228.963 119.887 227.761 118.968 226.281C118.05 224.802 117.57 223.191 117.53 221.45C117.49 219.71 117.927 217.995 118.841 216.306C119.754 214.618 120.945 213.325 122.413 212.427C123.893 211.509 125.503 211.029 127.244 210.989C128.985 210.949 130.716 211.381 132.437 212.285C134.126 213.199 135.424 214.406 136.331 215.907C137.249 217.386 137.729 218.997 137.769 220.738C137.821 222.457 137.389 224.162 136.476 225.85ZM134.259 224.651C134.922 223.427 135.231 222.175 135.186 220.895C135.142 219.616 134.772 218.434 134.077 217.348C133.382 216.262 132.402 215.377 131.135 214.691C129.869 214.006 128.591 213.669 127.302 213.681C125.992 213.682 124.789 214.013 123.694 214.676C122.598 215.338 121.719 216.281 121.057 217.506C120.394 218.73 120.085 219.982 120.13 221.261C120.174 222.54 120.549 223.739 121.253 224.857C121.948 225.943 122.929 226.828 124.196 227.514C125.462 228.199 126.74 228.536 128.029 228.524C129.329 228.491 130.527 228.143 131.622 227.481C132.718 226.818 133.597 225.875 134.259 224.651Z" fill="white"/>
<path d="M147.425 207.674C146.636 208.85 145.654 209.882 144.48 210.77C143.306 211.659 142.08 212.194 140.801 212.377C140.415 212.435 140.086 212.344 139.813 212.104C139.541 211.864 139.382 211.54 139.337 211.134C139.325 210.721 139.439 210.379 139.68 210.107C139.92 209.834 140.217 209.672 140.57 209.62C141.449 209.516 142.298 209.176 143.119 208.599C143.953 208.003 144.691 207.226 145.332 206.27C146.322 204.795 146.788 203.561 146.732 202.57C146.655 201.564 146.264 200.811 145.56 200.309C144.843 199.828 144.027 199.772 143.114 200.142C142.181 200.499 141.064 201.368 139.762 202.748C138.092 204.547 136.545 205.647 135.119 206.049C133.693 206.451 132.432 206.284 131.336 205.548C130.32 204.866 129.653 204.029 129.337 203.036C129.02 202.044 128.994 200.985 129.257 199.861C129.52 198.737 130.012 197.637 130.734 196.56C131.63 195.225 132.628 194.233 133.729 193.584C134.842 192.915 135.988 192.542 137.167 192.466C137.56 192.441 137.882 192.542 138.134 192.769C138.387 192.996 138.509 193.309 138.501 193.708C138.48 194.041 138.343 194.353 138.089 194.646C137.828 194.904 137.505 195.063 137.119 195.122C136.207 195.232 135.4 195.529 134.7 196.013C133.979 196.484 133.332 197.147 132.757 198.004C132.021 199.1 131.662 200.131 131.679 201.096C131.676 202.048 132.014 202.751 132.691 203.206C133.15 203.514 133.628 203.662 134.128 203.65C134.64 203.618 135.227 203.39 135.887 202.966C136.561 202.522 137.355 201.812 138.27 200.837C139.512 199.502 140.66 198.567 141.713 198.031C142.76 197.462 143.722 197.212 144.601 197.281C145.473 197.317 146.277 197.582 147.015 198.077C147.951 198.706 148.591 199.54 148.934 200.579C149.271 201.585 149.31 202.71 149.054 203.954C148.81 205.178 148.268 206.418 147.425 207.674Z" fill="white"/>
<path d="M159.505 190.999C158.717 191.997 157.775 192.706 156.68 193.126C155.599 193.526 154.475 193.633 153.308 193.446C152.123 193.243 151.002 192.726 149.947 191.893L136.13 180.986C135.809 180.733 135.62 180.431 135.562 180.079C135.518 179.708 135.622 179.362 135.875 179.042C136.128 178.722 136.44 178.54 136.811 178.496C137.181 178.453 137.527 178.557 137.847 178.81L151.665 189.717C152.626 190.476 153.64 190.818 154.708 190.743C155.757 190.654 156.631 190.167 157.329 189.281L157.932 188.518C158.17 188.217 158.467 188.054 158.822 188.029C159.178 188.004 159.516 188.118 159.837 188.371C160.157 188.624 160.332 188.945 160.36 189.335C160.37 189.709 160.241 190.066 159.974 190.405L159.505 190.999ZM140.953 187.774C140.73 188.057 140.459 188.225 140.141 188.28C139.804 188.32 139.503 188.235 139.24 188.027C138.957 187.804 138.805 187.532 138.785 187.209C138.745 186.872 138.837 186.562 139.06 186.28L144.748 179.074C144.971 178.792 145.251 178.631 145.588 178.591C145.906 178.536 146.206 178.621 146.489 178.844C146.753 179.052 146.904 179.325 146.944 179.662C146.965 179.984 146.864 180.286 146.641 180.569L140.953 187.774Z" fill="white"/>
<path d="M169.587 179.771C168.262 181.194 166.777 182.173 165.132 182.707C163.485 183.207 161.815 183.258 160.119 182.86C158.44 182.444 156.889 181.574 155.467 180.249C154.026 178.908 153.032 177.441 152.482 175.847C151.932 174.22 151.823 172.593 152.156 170.968C152.488 169.343 153.284 167.854 154.544 166.502C155.787 165.167 157.173 164.294 158.704 163.883C160.234 163.438 161.787 163.442 163.366 163.895C164.944 164.348 166.419 165.212 167.789 166.488C168.07 166.75 168.216 167.05 168.228 167.39C168.223 167.712 168.089 168.014 167.828 168.295L157.401 179.493L155.715 177.922L166.338 166.514L166.099 168.408C165.097 167.442 164.012 166.776 162.844 166.41C161.676 166.044 160.529 166.008 159.402 166.303C158.291 166.581 157.277 167.211 156.362 168.195C155.429 169.196 154.849 170.295 154.62 171.492C154.391 172.689 154.501 173.89 154.952 175.097C155.401 176.27 156.162 177.355 157.233 178.352C158.304 179.35 159.466 180.005 160.716 180.317C161.983 180.611 163.23 180.575 164.457 180.209C165.683 179.843 166.787 179.133 167.769 178.079C168.358 177.446 168.841 176.716 169.219 175.887C169.596 175.025 169.797 174.245 169.823 173.548C169.845 173.207 169.971 172.914 170.199 172.668C170.411 172.406 170.669 172.253 170.973 172.208C171.396 172.176 171.731 172.274 171.977 172.503C172.239 172.715 172.36 173.007 172.339 173.382C172.291 174.419 172.017 175.541 171.517 176.748C170.999 177.938 170.355 178.946 169.587 179.771Z" fill="white"/>
<path d="M171.212 160.682C170.268 159.53 169.66 158.285 169.387 156.945C169.133 155.59 169.199 154.285 169.585 153.03C169.989 151.759 170.707 150.657 171.74 149.724C172.559 148.983 173.296 148.528 173.95 148.357C174.604 148.186 175.079 148.371 175.375 148.913C175.545 149.244 175.581 149.535 175.484 149.785C175.404 150.019 175.231 150.24 174.966 150.447C174.718 150.639 174.435 150.862 174.116 151.118C173.039 151.93 172.245 152.842 171.735 153.852C171.227 154.829 171.015 155.83 171.1 156.853C171.202 157.861 171.631 158.783 172.387 159.62L171.212 160.682ZM179.508 169.538C179.187 169.827 178.858 169.964 178.519 169.947C178.18 169.929 177.865 169.761 177.576 169.44L166.206 156.861C165.916 156.541 165.78 156.211 165.797 155.872C165.814 155.533 165.983 155.219 166.303 154.929C166.624 154.639 166.953 154.503 167.292 154.52C167.631 154.537 167.946 154.706 168.235 155.027L179.605 167.605C179.895 167.926 180.031 168.256 180.014 168.595C179.997 168.934 179.828 169.248 179.508 169.538Z" fill="white"/>
<path d="M195.888 155.899C194.766 156.762 193.507 157.428 192.111 157.896C190.715 158.364 189.382 158.481 188.111 158.247C187.727 158.18 187.443 157.989 187.262 157.674C187.081 157.359 187.033 157.002 187.119 156.603C187.239 156.208 187.457 155.92 187.771 155.738C188.086 155.557 188.419 155.497 188.77 155.56C189.636 155.742 190.55 155.69 191.512 155.405C192.492 155.105 193.439 154.604 194.352 153.901C195.76 152.819 196.595 151.798 196.857 150.84C197.104 149.862 196.974 149.024 196.466 148.324C195.939 147.639 195.184 147.327 194.201 147.387C193.203 147.428 191.867 147.895 190.193 148.789C188.037 149.962 186.22 150.513 184.741 150.439C183.261 150.366 182.119 149.806 181.314 148.76C180.568 147.79 180.203 146.784 180.219 145.742C180.235 144.7 180.547 143.688 181.154 142.706C181.762 141.724 182.579 140.838 183.606 140.048C184.881 139.068 186.143 138.445 187.393 138.181C188.662 137.901 189.867 137.913 191.008 138.216C191.388 138.317 191.662 138.515 191.829 138.811C191.996 139.106 192.012 139.442 191.877 139.818C191.751 140.127 191.521 140.38 191.188 140.576C190.859 140.738 190.501 140.786 190.117 140.718C189.217 140.532 188.358 140.557 187.54 140.793C186.707 141.009 185.882 141.432 185.064 142.061C184.017 142.866 183.349 143.728 183.057 144.649C182.751 145.55 182.847 146.324 183.345 146.971C183.681 147.409 184.088 147.701 184.565 147.849C185.061 147.982 185.69 147.953 186.451 147.762C187.231 147.555 188.21 147.135 189.388 146.502C190.99 145.633 192.376 145.112 193.545 144.939C194.718 144.733 195.711 144.803 196.521 145.148C197.336 145.46 198.014 145.968 198.556 146.671C199.244 147.566 199.584 148.56 199.578 149.655C199.577 150.715 199.256 151.795 198.617 152.892C197.996 153.975 197.087 154.977 195.888 155.899Z" fill="white"/>
<path d="M223.663 139.228C221.698 136.776 217.901 134.427 212.733 133.694C210.189 133.326 207.873 133.449 205.867 134.059L205.138 132.734C208.235 129.923 210.418 125.6 210.871 121.119C211.105 118.854 210.946 116.846 210.342 115.001L211.667 114.273C213.955 117.164 218.359 119.344 223.003 119.871C225.285 120.137 227.423 119.989 229.366 119.413L230.094 120.738C226.992 123.389 224.639 128.75 224.372 133.046C224.247 135.21 224.463 137.022 224.988 138.5L223.663 139.228Z" fill="white"/>
</svg>
