<svg width="272" height="649" viewBox="0 0 272 649" fill="none" xmlns="http://www.w3.org/2000/svg">
<path fill-rule="evenodd" clip-rule="evenodd" d="M-41.9972 649L-1040 649C-1040 648.833 -1040 648.667 -1040 648.5C-1040 625.028 -1059.03 606 -1082.5 606C-1082.63 606 -1082.76 606 -1082.89 606.002L-1083 606.003L-1083 576.992C-1082.83 576.997 -1082.67 577 -1082.5 577C-1073.39 577 -1066 569.613 -1066 560.5C-1066 551.387 -1073.39 544 -1082.5 544C-1082.67 544 -1082.83 544.002 -1083 544.007L-1083 533.992C-1082.83 533.997 -1082.67 534 -1082.5 534C-1073.39 534 -1066 526.613 -1066 517.5C-1066 508.387 -1073.39 501 -1082.5 501C-1082.61 501 -1082.71 501.001 -1082.82 501.003C-1082.88 501.004 -1082.94 501.006 -1083 501.007L-1083 490.992C-1082.83 490.997 -1082.67 491 -1082.5 491C-1073.39 491 -1066 483.613 -1066 474.5C-1066 465.387 -1073.39 458 -1082.5 458C-1082.57 458 -1082.64 458 -1082.71 458.001C-1082.81 458.002 -1082.9 458.004 -1083 458.007L-1083 447.992C-1082.83 447.997 -1082.67 448 -1082.5 448C-1073.39 448 -1066 440.613 -1066 431.5C-1066 422.387 -1073.39 415 -1082.5 415C-1082.67 415 -1082.83 415.002 -1083 415.007L-1083 404.992C-1082.83 404.997 -1082.67 405 -1082.5 405C-1073.39 405 -1066 397.613 -1066 388.5C-1066 379.387 -1073.39 372 -1082.5 372C-1082.67 372 -1082.83 372.002 -1083 372.007L-1083 361.992C-1082.83 361.997 -1082.67 362 -1082.5 362C-1073.39 362 -1066 354.613 -1066 345.5C-1066 336.387 -1073.39 329 -1082.5 329C-1082.67 329 -1082.83 329.002 -1083 329.007L-1083 318.992C-1082.83 318.997 -1082.67 319 -1082.5 319C-1073.39 319 -1066 311.613 -1066 302.5C-1066 293.387 -1073.39 286 -1082.5 286L-1082.58 286L-1082.64 286L-1082.72 286.001L-1082.8 286.003C-1082.87 286.004 -1082.93 286.005 -1083 286.007L-1083 275.992C-1082.83 275.997 -1082.67 276 -1082.5 276C-1073.39 276 -1066 268.613 -1066 259.5C-1066 250.387 -1073.39 243 -1082.5 243C-1082.67 243 -1082.83 243.002 -1083 243.007L-1083 232.992C-1082.83 232.997 -1082.67 233 -1082.5 233C-1073.39 233 -1066 225.613 -1066 216.5C-1066 207.387 -1073.39 200 -1082.5 200C-1082.57 200 -1082.65 200 -1082.72 200.001L-1082.84 200.003C-1082.9 200.004 -1082.95 200.006 -1083 200.007L-1083 189.992C-1082.83 189.997 -1082.67 190 -1082.5 190C-1073.39 190 -1066 182.613 -1066 173.5C-1066 164.387 -1073.39 157 -1082.5 157C-1082.57 157 -1082.64 157 -1082.7 157.001C-1082.8 157.002 -1082.9 157.004 -1083 157.007L-1083 146.992C-1082.83 146.997 -1082.67 147 -1082.5 147C-1073.39 147 -1066 139.613 -1066 130.5C-1066 121.387 -1073.39 114 -1082.5 114C-1082.67 114 -1082.83 114.002 -1083 114.007L-1083 103.992C-1082.83 103.997 -1082.67 104 -1082.5 104C-1073.39 104 -1066 96.6126 -1066 87.4999C-1066 78.3872 -1073.39 70.9999 -1082.5 70.9999C-1082.67 70.9999 -1082.83 71.0024 -1083 71.0073L-1083 41.997C-1082.83 41.9989 -1082.67 41.9999 -1082.5 41.9999C-1059.19 41.9999 -1040.27 23.2416 -1040 -5.1727e-05L-41.9971 -2.55137e-05C-41.7292 23.2417 -22.8052 42 0.500023 42C23.8052 42 42.7292 23.2417 42.9971 -1.80833e-05L230.003 -1.73473e-06C230.269 23.0753 248.925 41.7311 272 41.9971L272 71.0074C263.119 71.2718 256 78.5546 256 87.5C256 96.4454 263.119 103.728 272 103.993L272 114.007C263.119 114.272 256 121.555 256 130.5C256 139.445 263.119 146.728 272 146.993L272 157.007C263.119 157.272 256 164.555 256 173.5C256 182.445 263.119 189.728 272 189.993L272 200.007C263.119 200.272 256 207.555 256 216.5C256 225.445 263.119 232.728 272 232.993L272 243.007C263.119 243.272 256 250.555 256 259.5C256 268.445 263.119 275.728 272 275.993L272 286.007C263.119 286.272 256 293.555 256 302.5C256 311.445 263.119 318.728 272 318.993L272 329.007C263.119 329.272 256 336.555 256 345.5C256 354.445 263.119 361.728 272 361.993L272 372.007C263.119 372.272 256 379.555 256 388.5C256 397.445 263.119 404.728 272 404.993L272 415.007C263.119 415.272 256 422.555 256 431.5C256 440.445 263.119 447.728 272 447.993L272 458.007C263.119 458.272 256 465.555 256 474.5C256 483.445 263.119 490.728 272 490.993L272 501.007C263.119 501.272 256 508.555 256 517.5C256 526.445 263.119 533.728 272 533.993L272 544.007C263.119 544.272 256 551.555 256 560.5C256 569.445 263.119 576.728 272 576.993L272 606.003C248.758 606.271 230 625.195 230 648.5C230 648.667 230.001 648.834 230.003 649L42.9971 649C42.999 648.834 43 648.667 43 648.5C43 625.028 23.9721 606 0.499973 606C-22.9721 606 -42 625.028 -42 648.5C-42 648.667 -41.9991 648.834 -41.9972 649Z" fill="white"/>
</svg>
