<svg width="1083" height="649" viewBox="0 0 1083 649" fill="none" xmlns="http://www.w3.org/2000/svg">
<path fill-rule="evenodd" clip-rule="evenodd" d="M1041 649L42.9971 649C42.999 648.833 43 648.667 43 648.5C43 625.028 23.972 606 0.500004 606C0.369633 606 0.239384 606 0.109257 606.002L3.75893e-06 606.003L6.29509e-06 576.992C0.166022 576.997 0.33277 577 0.500006 577C9.61268 577 17 569.613 17 560.5C17 551.387 9.61268 544 0.500009 544C0.332773 544 0.166025 544.002 9.17874e-06 544.007L1.00543e-05 533.992C0.166026 533.997 0.332774 534 0.50001 534C9.61268 534 17 526.613 17 517.5C17 508.387 9.61268 501 0.500013 501C0.393323 501 0.286756 501.001 0.180433 501.003C0.120252 501.004 0.0600715 501.006 1.29379e-05 501.007L1.38134e-05 490.992C0.166029 490.997 0.332777 491 0.500014 491C9.61268 491 17 483.613 17 474.5C17 465.387 9.61269 458 0.500017 458C0.429948 458 0.360002 458 0.290178 458.001C0.193254 458.002 0.0965743 458.004 1.66971e-05 458.007L1.75726e-05 447.992C0.166033 447.997 0.332781 448 0.500018 448C9.61269 448 17 440.613 17 431.5C17 422.387 9.61269 415 0.50002 415C0.332784 415 0.166036 415.002 2.04563e-05 415.007L2.13318e-05 404.992C0.166037 404.997 0.332785 405 0.500021 405C9.61269 405 17 397.613 17 388.5C17 379.387 9.6127 372 0.500024 372C0.332788 372 0.16604 372.002 2.42155e-05 372.007L2.5091e-05 361.992C0.166041 361.997 0.332789 362 0.500025 362C9.6127 362 17 354.613 17 345.5C17 336.387 9.6127 329 0.500028 329C0.332792 329 0.166044 329.002 2.79746e-05 329.007L2.88502e-05 318.992C0.166044 318.997 0.332793 319 0.500029 319C9.6127 319 17 311.613 17 302.5C17 293.387 9.6127 286 0.500032 286L0.421663 286L0.361604 286L0.282136 286.001L0.201326 286.003C0.134187 286.004 0.0670483 286.005 3.17338e-05 286.007L3.26093e-05 275.992C0.166048 275.997 0.332796 276 0.500033 276C9.6127 276 17 268.613 17 259.5C17 250.387 9.61271 243 0.500035 243C0.332799 243 0.166051 243.002 3.5493e-05 243.007L3.63685e-05 232.992C0.166052 232.997 0.3328 233 0.500036 233C9.61271 233 17 225.613 17 216.5C17 207.387 9.61271 200 0.500039 200C0.42521 200 0.350503 200 0.27604 200.001L0.155191 200.003C0.103433 200.004 0.051675 200.006 3.92522e-05 200.007L4.01277e-05 189.992C0.166056 189.997 0.332804 190 0.50004 190C9.61271 190 17 182.613 17 173.5C17 164.387 9.61271 157 0.500043 157C0.431806 157 0.36369 157 0.295697 157.001C0.196942 157.002 0.0984317 157.004 4.30114e-05 157.007L4.38869e-05 146.992C0.16606 146.997 0.332808 147 0.500044 147C9.61271 147 17 139.613 17 130.5C17 121.387 9.61272 114 0.500047 114C0.33281 114 0.166062 114.002 4.67705e-05 114.007L4.76461e-05 103.992C0.166063 103.997 0.332811 104 0.500048 104C9.61272 104 17 96.6126 17 87.4999C17 78.3872 9.61272 70.9999 0.500051 70.9999C0.332814 70.9999 0.166066 71.0024 5.05297e-05 71.0073L5.30659e-05 41.997C0.166435 41.9989 0.333183 41.9999 0.500053 41.9999C23.8052 41.9999 42.7292 23.2416 42.9971 -5.1727e-05L1041 -2.55137e-05C1041.27 23.2417 1060.19 42 1083.5 42C1106.81 42 1125.73 23.2417 1126 -1.80833e-05L1313 -1.73473e-06C1313.27 23.0753 1331.92 41.7311 1355 41.9971L1355 71.0074C1346.12 71.2718 1339 78.5546 1339 87.5C1339 96.4454 1346.12 103.728 1355 103.993L1355 114.007C1346.12 114.272 1339 121.555 1339 130.5C1339 139.445 1346.12 146.728 1355 146.993L1355 157.007C1346.12 157.272 1339 164.555 1339 173.5C1339 182.445 1346.12 189.728 1355 189.993L1355 200.007C1346.12 200.272 1339 207.555 1339 216.5C1339 225.445 1346.12 232.728 1355 232.993L1355 243.007C1346.12 243.272 1339 250.555 1339 259.5C1339 268.445 1346.12 275.728 1355 275.993L1355 286.007C1346.12 286.272 1339 293.555 1339 302.5C1339 311.445 1346.12 318.728 1355 318.993L1355 329.007C1346.12 329.272 1339 336.555 1339 345.5C1339 354.445 1346.12 361.728 1355 361.993L1355 372.007C1346.12 372.272 1339 379.555 1339 388.5C1339 397.445 1346.12 404.728 1355 404.993L1355 415.007C1346.12 415.272 1339 422.555 1339 431.5C1339 440.445 1346.12 447.728 1355 447.993L1355 458.007C1346.12 458.272 1339 465.555 1339 474.5C1339 483.445 1346.12 490.728 1355 490.993L1355 501.007C1346.12 501.272 1339 508.555 1339 517.5C1339 526.445 1346.12 533.728 1355 533.993L1355 544.007C1346.12 544.272 1339 551.555 1339 560.5C1339 569.445 1346.12 576.728 1355 576.993L1355 606.003C1331.76 606.271 1313 625.195 1313 648.5C1313 648.667 1313 648.834 1313 649L1126 649C1126 648.834 1126 648.667 1126 648.5C1126 625.028 1106.97 606 1083.5 606C1060.03 606 1041 625.028 1041 648.5C1041 648.667 1041 648.834 1041 649Z" fill="white"/>
</svg>
